<svg xmlns="http://www.w3.org/2000/svg" viewBox="0 0 189.61 189.61"><defs><style>.cls-1{fill:#00ae42;}.cls-2,.cls-4{fill:#fff;}.cls-2,.cls-3,.cls-4{stroke:#fff;stroke-miterlimit:10;}.cls-2,.cls-3{stroke-width:8px;}.cls-3{fill:none;}</style></defs><g id="Capa_2" data-name="Capa 2"><g id="Capa_1-2" data-name="Capa 1"><circle class="cls-1" cx="94.81" cy="94.81" r="94.81"/><path class="cls-2" d="M45.28,75H55.71a0,0,0,0,1,0,0v36.49a0,0,0,0,1,0,0H45.28a10.43,10.43,0,0,1-10.43-10.43V85.44A10.43,10.43,0,0,1,45.28,75Z"/><path class="cls-2" d="M144.33,75h10.43a0,0,0,0,1,0,0v36.49a0,0,0,0,1,0,0H144.33a10.43,10.43,0,0,1-10.43-10.43V85.44A10.43,10.43,0,0,1,144.33,75Z" transform="translate(288.67 186.52) rotate(180)"/><path class="cls-3" d="M139.12,111.51v10.42c0,11.52-10.43,26.07-26.07,26.07H102.63"/><path class="cls-4" d="M99,156.31H90.65a8.31,8.31,0,0,1-8.3-8.31h0a8.3,8.3,0,0,1,8.3-8.3H99a8.3,8.3,0,0,1,8.31,8.3h0A8.31,8.31,0,0,1,99,156.31Z"/><path class="cls-3" d="M55.71,75V69.8A36.49,36.49,0,0,1,92.2,33.31h5.21a36.5,36.5,0,0,1,36.5,36.49V75"/></g></g></svg>