<svg xmlns="http://www.w3.org/2000/svg" viewBox="0 0 195.61 195.61"><defs><style>.cls-1,.cls-3{fill:none;stroke:#3cb4e5;stroke-miterlimit:10;}.cls-1{stroke-width:8px;}.cls-2{fill:#3cb4e5;}.cls-3{stroke-width:6px;}</style></defs><g id="Capa_2" data-name="Capa 2"><g id="Capa_1-2" data-name="Capa 1"><path class="cls-1" d="M48.28,78H58.71a0,0,0,0,1,0,0v36.49a0,0,0,0,1,0,0H48.28a10.43,10.43,0,0,1-10.43-10.43V88.44A10.43,10.43,0,0,1,48.28,78Z"/><path class="cls-1" d="M147.33,78h10.43a0,0,0,0,1,0,0v36.49a0,0,0,0,1,0,0H147.33a10.43,10.43,0,0,1-10.43-10.43V88.44A10.43,10.43,0,0,1,147.33,78Z" transform="translate(294.67 192.52) rotate(180)"/><path class="cls-1" d="M142.12,114.51v10.42c0,11.52-10.43,26.07-26.07,26.07H105.63"/><path class="cls-2" d="M102,159.31H93.65a8.31,8.31,0,0,1-8.3-8.31h0a8.3,8.3,0,0,1,8.3-8.3H102a8.3,8.3,0,0,1,8.31,8.3h0A8.31,8.31,0,0,1,102,159.31Z"/><path class="cls-1" d="M58.71,78V72.8A36.49,36.49,0,0,1,95.2,36.31h5.21a36.5,36.5,0,0,1,36.5,36.49V78"/><circle class="cls-3" cx="97.81" cy="97.81" r="94.81"/></g></g></svg>