<svg id="svg" version="1.1" xmlns="http://www.w3.org/2000/svg" xmlns:xlink="http://www.w3.org/1999/xlink" width="400" height="464.73029045643153" viewBox="0, 0, 400,464.73029045643153"><g id="svgg"><path id="path0" d="M40.922 11.578 C 40.775 12.137,40.307 12.391,39.259 12.478 C 38.096 12.575,37.774 12.782,37.672 13.500 C 37.565 14.256,37.297 14.400,35.999 14.400 C 34.805 14.400,34.396 14.582,34.200 15.200 C 34.060 15.640,33.598 16.000,33.173 16.000 C 32.667 16.000,32.400 16.276,32.400 16.800 C 32.400 17.333,32.133 17.600,31.600 17.600 C 31.067 17.600,30.800 17.867,30.800 18.400 C 30.800 18.933,30.533 19.200,30.000 19.200 C 29.483 19.200,29.200 19.467,29.200 19.953 C 29.200 20.370,28.843 20.800,28.400 20.916 C 27.787 21.076,27.600 21.462,27.600 22.563 C 27.600 23.733,27.452 24.000,26.800 24.000 C 26.213 24.000,26.000 24.267,26.000 25.000 C 26.000 25.629,25.774 26.000,25.390 26.000 C 24.649 26.000,24.000 27.578,24.000 29.379 C 24.000 30.370,23.797 30.760,23.200 30.916 C 22.564 31.082,22.400 31.462,22.400 32.763 C 22.400 33.896,22.228 34.400,21.843 34.400 C 21.049 34.400,20.800 35.307,20.800 38.206 C 20.800 40.395,20.689 40.781,20.000 41.000 C 19.239 41.241,19.200 41.605,19.200 48.427 C 19.200 55.333,19.170 55.600,18.400 55.600 C 17.619 55.600,17.600 55.867,17.600 67.037 C 17.600 78.138,17.624 78.481,18.400 78.684 C 19.170 78.885,19.200 79.230,19.200 87.884 C 19.200 96.538,19.230 96.883,20.000 97.084 C 20.753 97.281,20.800 97.630,20.800 103.014 C 20.800 109.048,20.942 110.000,21.843 110.000 C 22.279 110.000,22.400 110.811,22.400 113.750 C 22.400 118.181,22.701 120.000,23.436 120.000 C 23.842 120.000,24.000 120.996,24.086 124.100 C 24.195 128.007,24.242 128.206,25.100 128.328 C 25.968 128.451,26.000 128.606,26.000 132.628 C 26.000 136.533,26.051 136.800,26.800 136.800 C 27.546 136.800,27.600 137.067,27.600 140.773 C 27.600 144.395,27.671 144.769,28.400 145.000 C 29.111 145.226,29.200 145.605,29.200 148.427 C 29.200 151.333,29.267 151.600,30.000 151.600 C 30.734 151.600,30.800 151.867,30.800 154.837 C 30.800 157.738,30.883 158.097,31.600 158.284 C 32.316 158.471,32.400 158.830,32.400 161.684 C 32.400 164.538,32.484 164.897,33.200 165.084 C 33.910 165.270,34.000 165.630,34.000 168.284 C 34.000 170.938,34.090 171.298,34.800 171.484 C 35.509 171.670,35.600 172.030,35.600 174.655 C 35.600 177.426,35.664 177.646,36.600 178.073 C 37.536 178.499,37.600 178.718,37.600 181.502 C 37.600 184.138,37.691 184.499,38.400 184.684 C 39.095 184.866,39.200 185.230,39.200 187.447 C 39.200 189.733,39.284 190.000,40.000 190.000 C 40.730 190.000,40.800 190.267,40.800 193.037 C 40.800 195.738,40.889 196.098,41.600 196.284 C 42.287 196.464,42.400 196.830,42.400 198.884 C 42.400 200.938,42.513 201.304,43.200 201.484 C 43.886 201.663,44.000 202.030,44.000 204.047 C 44.000 206.133,44.091 206.400,44.800 206.400 C 45.510 206.400,45.600 206.667,45.600 208.774 C 45.600 211.531,46.124 213.200,46.990 213.200 C 47.469 213.200,47.600 213.716,47.600 215.600 C 47.600 217.733,47.689 218.000,48.400 218.000 C 49.112 218.000,49.200 218.267,49.200 220.437 C 49.200 222.538,49.310 222.904,50.000 223.084 C 50.686 223.263,50.800 223.630,50.800 225.647 C 50.800 227.733,50.891 228.000,51.600 228.000 C 52.312 228.000,52.400 228.267,52.400 230.437 C 52.400 232.538,52.510 232.904,53.200 233.084 C 53.886 233.263,54.000 233.630,54.000 235.647 C 54.000 237.733,54.091 238.000,54.800 238.000 C 55.511 238.000,55.600 238.267,55.600 240.400 C 55.600 242.514,55.693 242.800,56.381 242.800 C 57.059 242.800,57.177 243.128,57.281 245.300 C 57.388 247.545,57.492 247.813,58.300 247.928 C 59.118 248.044,59.200 248.272,59.200 250.428 C 59.200 252.533,59.290 252.800,60.000 252.800 C 60.718 252.800,60.800 253.067,60.800 255.400 C 60.800 257.733,60.882 258.000,61.600 258.000 C 62.311 258.000,62.400 258.267,62.400 260.400 C 62.400 262.533,62.489 262.800,63.200 262.800 C 63.910 262.800,64.000 263.067,64.000 265.173 C 64.000 267.195,64.118 267.584,64.800 267.800 C 65.449 268.006,65.601 268.408,65.606 269.927 C 65.615 272.542,66.040 273.128,67.400 272.400 C 69.586 271.230,70.787 274.124,69.396 277.209 C 68.497 279.202,68.724 280.961,69.900 281.128 C 70.709 281.243,70.800 281.478,70.800 283.465 C 70.800 285.338,70.922 285.707,71.600 285.884 C 72.231 286.049,72.400 286.430,72.400 287.684 C 72.400 288.938,72.569 289.319,73.200 289.484 C 73.877 289.661,74.000 290.030,74.000 291.884 C 74.000 293.738,74.123 294.107,74.800 294.284 C 75.444 294.452,75.600 294.830,75.600 296.214 C 75.600 298.316,75.909 299.200,76.643 299.200 C 77.025 299.200,77.200 299.695,77.200 300.773 C 77.200 301.995,77.379 302.403,78.000 302.600 C 78.591 302.788,78.800 303.205,78.800 304.201 C 78.800 306.020,79.446 307.600,80.190 307.600 C 80.635 307.600,80.800 308.033,80.800 309.200 C 80.800 310.533,80.933 310.800,81.600 310.800 C 82.310 310.800,82.400 311.067,82.400 313.173 C 82.400 315.195,82.518 315.584,83.200 315.800 C 83.821 315.997,84.000 316.405,84.000 317.627 C 84.000 318.933,84.136 319.200,84.800 319.200 C 85.505 319.200,85.600 319.467,85.600 321.437 C 85.600 323.338,85.720 323.706,86.400 323.884 C 87.031 324.049,87.200 324.430,87.200 325.684 C 87.200 326.938,87.369 327.319,88.000 327.484 C 88.606 327.643,88.800 328.030,88.800 329.084 C 88.800 330.138,88.994 330.525,89.600 330.684 C 90.213 330.845,90.401 331.232,90.405 332.347 C 90.414 334.575,90.805 335.600,91.647 335.600 C 92.262 335.600,92.400 335.900,92.400 337.237 C 92.400 338.538,92.564 338.918,93.200 339.084 C 93.827 339.248,94.000 339.630,94.000 340.847 C 94.000 342.133,94.137 342.400,94.800 342.400 C 95.470 342.400,95.600 342.667,95.600 344.037 C 95.600 345.338,95.764 345.718,96.400 345.884 C 97.027 346.048,97.200 346.430,97.200 347.647 C 97.200 348.933,97.337 349.200,98.000 349.200 C 98.679 349.200,98.800 349.467,98.800 350.967 C 98.800 353.086,99.104 354.000,99.808 354.000 C 100.105 354.000,100.446 354.689,100.600 355.600 C 100.751 356.496,101.096 357.200,101.384 357.200 C 101.672 357.200,102.007 357.885,102.147 358.756 C 102.286 359.631,102.674 360.419,103.030 360.556 C 103.927 360.900,104.000 360.874,104.000 360.200 C 104.000 359.870,104.317 359.600,104.705 359.600 C 105.104 359.600,106.276 358.461,107.405 356.974 C 108.502 355.530,110.073 353.595,110.895 352.674 C 111.717 351.753,112.392 350.888,112.395 350.751 C 112.400 350.512,115.806 346.040,116.928 344.800 C 117.227 344.470,117.905 343.570,118.435 342.800 C 118.966 342.030,119.813 340.860,120.317 340.200 C 120.821 339.540,121.541 338.584,121.917 338.075 C 122.293 337.566,122.870 336.840,123.200 336.461 C 123.530 336.083,124.334 334.969,124.987 333.987 C 125.640 333.004,126.404 331.930,126.685 331.600 C 127.656 330.459,129.027 328.593,130.211 326.800 C 130.865 325.810,131.592 324.820,131.826 324.600 C 132.060 324.380,133.129 322.876,134.202 321.258 C 135.275 319.640,136.388 318.226,136.676 318.115 C 136.964 318.005,137.200 317.688,137.200 317.412 C 137.200 317.136,137.695 316.276,138.300 315.500 C 138.905 314.725,139.670 313.690,140.000 313.200 C 140.330 312.710,141.095 311.675,141.700 310.900 C 142.305 310.124,142.800 309.335,142.800 309.145 C 142.800 308.955,143.115 308.470,143.500 308.066 C 143.885 307.662,144.422 306.987,144.694 306.566 C 144.965 306.145,145.641 305.170,146.195 304.400 C 146.749 303.630,147.313 302.685,147.448 302.300 C 147.583 301.915,147.848 301.600,148.036 301.600 C 148.225 301.600,148.679 301.015,149.046 300.300 C 149.412 299.585,149.870 298.897,150.063 298.772 C 151.082 298.111,151.097 294.311,150.083 293.634 C 149.891 293.505,149.071 292.014,148.261 290.320 C 147.452 288.627,146.626 287.140,146.426 287.016 C 146.225 286.892,145.947 286.268,145.806 285.629 C 145.666 284.990,145.302 284.371,144.997 284.254 C 144.691 284.137,144.246 283.312,144.006 282.421 C 143.766 281.529,143.425 280.800,143.248 280.800 C 143.071 280.800,142.713 280.088,142.452 279.217 C 142.191 278.346,141.814 277.532,141.613 277.408 C 141.412 277.284,140.603 275.881,139.815 274.291 C 139.027 272.701,138.225 271.130,138.033 270.800 C 137.841 270.470,137.083 268.940,136.350 267.400 C 135.616 265.860,134.904 264.510,134.766 264.400 C 134.628 264.290,134.296 263.525,134.027 262.700 C 133.758 261.875,133.372 261.200,133.169 261.200 C 132.966 261.200,132.800 260.994,132.800 260.742 C 132.800 260.342,130.605 255.669,129.633 254.000 C 129.441 253.670,128.693 252.176,127.972 250.681 C 127.251 249.185,126.532 247.882,126.376 247.785 C 126.219 247.688,125.976 246.995,125.835 246.245 C 125.694 245.494,125.331 244.675,125.029 244.424 C 124.726 244.173,124.357 243.480,124.208 242.884 C 124.059 242.288,123.704 241.530,123.419 241.200 C 123.134 240.870,122.684 239.925,122.420 239.100 C 122.155 238.275,121.779 237.600,121.584 237.600 C 121.390 237.600,121.043 236.901,120.813 236.047 C 120.582 235.192,120.126 234.270,119.797 233.998 C 119.469 233.725,119.200 233.193,119.200 232.815 C 119.200 232.018,116.923 227.323,116.372 226.983 C 116.167 226.856,115.999 226.448,115.998 226.076 C 115.997 225.704,115.293 224.009,114.432 222.309 C 113.572 220.610,112.664 218.599,112.414 217.841 C 112.164 217.084,111.698 216.248,111.380 215.983 C 111.061 215.718,110.800 215.096,110.800 214.600 C 110.800 214.104,110.530 213.474,110.200 213.200 C 109.870 212.926,109.600 212.502,109.600 212.257 C 109.600 211.814,108.230 208.752,106.765 205.921 C 106.344 205.107,106.000 204.146,106.000 203.784 C 106.000 203.422,105.640 202.669,105.200 202.109 C 104.760 201.550,104.399 200.801,104.398 200.446 C 104.397 200.091,103.952 199.080,103.410 198.200 C 102.868 197.320,102.419 196.214,102.412 195.743 C 102.406 195.271,102.133 194.783,101.807 194.658 C 101.481 194.533,101.099 193.707,100.957 192.823 C 100.816 191.939,100.453 191.010,100.150 190.759 C 99.848 190.507,99.598 190.099,99.596 189.851 C 99.594 189.603,99.150 188.500,98.609 187.400 C 98.068 186.300,97.619 185.107,97.613 184.749 C 97.606 184.391,97.342 183.883,97.026 183.621 C 96.710 183.359,96.327 182.572,96.176 181.872 C 96.024 181.173,95.586 179.970,95.202 179.200 C 93.657 176.097,92.844 174.137,92.603 172.928 C 92.463 172.228,92.095 171.445,91.785 171.187 C 91.475 170.930,91.106 170.106,90.965 169.355 C 90.824 168.605,90.555 167.896,90.366 167.779 C 90.176 167.662,89.820 166.809,89.574 165.883 C 89.327 164.957,88.889 163.930,88.600 163.600 C 88.311 163.270,87.873 162.243,87.626 161.317 C 87.380 160.391,87.003 159.526,86.789 159.393 C 86.575 159.261,86.398 158.848,86.396 158.476 C 86.394 158.104,85.950 156.900,85.409 155.800 C 84.868 154.700,84.418 153.440,84.410 153.000 C 84.402 152.560,84.037 151.660,83.600 151.000 C 83.163 150.340,82.804 149.527,82.803 149.194 C 82.801 148.861,82.466 147.961,82.059 147.194 C 81.651 146.427,81.196 145.143,81.048 144.340 C 80.900 143.537,80.514 142.660,80.189 142.391 C 79.865 142.122,79.600 141.512,79.600 141.036 C 79.600 140.559,79.240 139.463,78.800 138.600 C 78.360 137.737,78.000 136.751,78.000 136.409 C 78.000 136.068,77.664 135.161,77.253 134.394 C 76.843 133.627,76.369 132.370,76.200 131.600 C 76.031 130.830,75.557 129.573,75.147 128.806 C 74.736 128.039,74.394 127.139,74.386 126.806 C 74.379 126.473,74.025 125.480,73.600 124.600 C 73.175 123.720,72.821 122.601,72.814 122.112 C 72.806 121.624,72.420 120.495,71.955 119.604 C 71.363 118.467,71.195 117.656,71.393 116.891 C 72.174 113.881,72.115 112.000,71.239 112.000 C 70.461 112.000,70.400 111.780,70.400 108.963 C 70.400 106.262,70.311 105.902,69.600 105.716 C 68.925 105.539,68.800 105.170,68.800 103.357 C 68.800 101.640,68.639 101.106,68.000 100.707 C 67.350 100.302,67.200 99.774,67.200 97.904 C 67.200 95.867,67.107 95.600,66.400 95.600 C 65.688 95.600,65.600 95.333,65.600 93.163 C 65.600 91.062,65.490 90.696,64.800 90.516 C 64.090 90.330,64.000 89.970,64.000 87.316 C 64.000 84.662,63.910 84.302,63.200 84.116 C 62.504 83.934,62.400 83.570,62.400 81.327 C 62.400 78.568,61.931 77.200,60.986 77.200 C 60.520 77.200,60.400 76.539,60.400 73.963 C 60.400 71.062,60.317 70.703,59.600 70.516 C 58.859 70.322,58.800 69.970,58.800 65.716 C 58.800 61.462,58.741 61.110,58.000 60.916 C 57.223 60.713,57.200 60.370,57.200 49.000 C 57.200 37.630,57.223 37.287,58.000 37.084 C 58.613 36.924,58.800 36.538,58.800 35.437 C 58.800 34.184,58.924 34.000,59.767 34.000 C 61.148 34.000,62.000 33.602,62.000 32.957 C 62.000 32.587,62.470 32.400,63.397 32.400 C 64.360 32.400,64.948 32.152,65.293 31.600 C 65.933 30.575,68.579 30.477,69.128 31.457 C 69.401 31.944,70.274 32.163,72.514 32.307 C 75.035 32.469,75.565 32.625,75.729 33.250 C 75.873 33.802,76.293 34.000,77.316 34.000 C 78.370 34.000,78.757 34.194,78.916 34.800 C 79.082 35.436,79.462 35.600,80.763 35.600 C 82.133 35.600,82.400 35.730,82.400 36.400 C 82.400 36.924,82.667 37.200,83.173 37.200 C 83.598 37.200,84.060 37.560,84.200 38.000 C 84.389 38.595,84.805 38.800,85.827 38.800 C 86.940 38.800,87.200 38.954,87.200 39.613 C 87.200 40.059,87.515 40.543,87.900 40.686 C 88.285 40.830,88.835 41.274,89.123 41.674 C 89.410 42.073,89.905 42.400,90.223 42.400 C 90.540 42.400,90.800 42.668,90.800 42.995 C 90.800 43.380,91.365 43.681,92.400 43.846 C 93.606 44.039,94.000 44.287,94.000 44.851 C 94.000 45.333,94.285 45.600,94.800 45.600 C 95.333 45.600,95.600 45.867,95.600 46.400 C 95.600 46.924,95.867 47.200,96.373 47.200 C 96.798 47.200,97.260 47.560,97.400 48.000 C 97.540 48.440,97.900 48.800,98.200 48.800 C 98.500 48.800,98.860 49.160,99.000 49.600 C 99.142 50.047,99.605 50.400,100.051 50.400 C 100.489 50.400,100.743 50.569,100.615 50.776 C 100.487 50.983,100.669 51.388,101.019 51.676 C 101.370 51.964,101.954 52.515,102.317 52.900 C 102.680 53.285,103.208 53.600,103.489 53.600 C 103.770 53.600,104.000 53.796,104.000 54.035 C 104.000 54.590,111.427 62.000,111.984 62.000 C 112.213 62.000,112.400 62.276,112.400 62.613 C 112.400 62.949,112.663 63.326,112.985 63.450 C 113.306 63.573,113.676 64.008,113.805 64.416 C 113.935 64.825,114.392 65.270,114.820 65.406 C 115.249 65.543,115.600 65.900,115.600 66.200 C 115.600 66.500,115.941 66.854,116.357 66.986 C 116.773 67.118,117.206 67.581,117.319 68.013 C 117.433 68.446,117.812 68.800,118.163 68.800 C 118.533 68.800,118.800 69.135,118.800 69.600 C 118.800 70.117,119.067 70.400,119.553 70.400 C 119.970 70.400,120.400 70.757,120.516 71.200 C 120.631 71.640,120.999 72.000,121.335 72.000 C 121.670 72.000,122.006 72.405,122.082 72.900 C 122.157 73.395,122.444 73.754,122.718 73.697 C 122.993 73.640,123.389 74.045,123.599 74.597 C 123.833 75.212,124.294 75.600,124.790 75.600 C 125.436 75.600,125.601 75.863,125.606 76.900 C 125.611 77.886,125.706 78.055,126.000 77.600 C 126.331 77.087,126.389 77.102,126.394 77.700 C 126.397 78.085,126.580 78.400,126.800 78.400 C 127.020 78.400,127.200 78.850,127.200 79.400 C 127.200 80.133,127.413 80.400,128.000 80.400 C 128.533 80.400,128.800 80.667,128.800 81.200 C 128.800 81.717,129.067 82.000,129.553 82.000 C 129.970 82.000,130.400 82.357,130.516 82.800 C 130.631 83.240,131.012 83.600,131.363 83.600 C 131.736 83.600,132.000 83.936,132.000 84.410 C 132.000 84.911,132.391 85.368,133.024 85.609 C 133.587 85.823,133.944 86.166,133.818 86.372 C 133.691 86.577,133.782 86.865,134.021 87.013 C 134.259 87.160,134.358 87.533,134.240 87.840 C 134.121 88.151,134.267 88.400,134.569 88.400 C 134.868 88.400,135.226 88.849,135.364 89.398 C 135.501 89.946,135.746 90.375,135.907 90.350 C 136.788 90.215,137.200 90.486,137.200 91.200 C 137.200 91.733,137.467 92.000,138.000 92.000 C 138.533 92.000,138.800 92.267,138.800 92.800 C 138.800 93.333,139.067 93.600,139.600 93.600 C 140.133 93.600,140.400 93.867,140.400 94.400 C 140.400 94.840,140.580 95.200,140.800 95.200 C 141.020 95.200,141.200 95.391,141.200 95.624 C 141.200 95.857,141.022 95.937,140.805 95.803 C 140.578 95.663,140.511 95.823,140.647 96.179 C 140.778 96.521,141.136 96.800,141.443 96.800 C 141.749 96.800,142.000 97.148,142.000 97.573 C 142.000 97.998,142.341 98.454,142.757 98.586 C 143.173 98.718,143.606 99.181,143.719 99.613 C 143.841 100.080,144.266 100.400,144.763 100.400 C 145.228 100.400,145.600 100.658,145.600 100.980 C 145.600 101.299,145.844 101.704,146.141 101.880 C 146.439 102.056,146.863 102.740,147.083 103.400 C 147.343 104.182,147.713 104.559,148.141 104.482 C 148.616 104.398,148.800 104.660,148.800 105.420 C 148.800 106.138,149.055 106.542,149.600 106.684 C 150.040 106.799,150.400 107.220,150.400 107.620 C 150.400 108.019,150.749 108.457,151.176 108.592 C 151.690 108.755,151.994 109.272,152.076 110.119 C 152.166 111.052,152.390 111.385,152.900 111.344 C 153.394 111.305,153.600 111.582,153.600 112.282 C 153.600 112.938,153.871 113.346,154.400 113.484 C 154.840 113.599,155.200 114.020,155.200 114.419 C 155.200 114.867,155.544 115.193,156.100 115.272 C 156.701 115.358,156.961 115.633,156.882 116.100 C 156.818 116.485,156.933 116.800,157.138 116.800 C 157.343 116.800,157.486 117.115,157.456 117.500 C 157.421 117.939,157.661 118.179,158.100 118.144 C 158.587 118.106,158.800 118.380,158.800 119.044 C 158.800 119.898,159.182 120.192,160.100 120.047 C 160.265 120.021,160.400 120.377,160.400 120.837 C 160.400 121.338,160.721 121.759,161.200 121.884 C 161.640 121.999,162.000 122.410,162.000 122.797 C 162.000 123.268,162.422 123.584,163.281 123.756 C 163.985 123.897,164.958 124.384,165.442 124.839 C 166.837 126.150,168.172 125.730,168.322 123.934 C 168.420 122.757,168.286 122.418,167.643 122.214 C 167.202 122.074,166.730 121.608,166.594 121.180 C 166.457 120.751,166.088 120.400,165.773 120.400 C 165.416 120.400,165.198 119.985,165.194 119.300 C 165.187 117.989,164.856 117.436,163.858 117.067 C 163.415 116.904,163.208 116.556,163.344 116.203 C 163.476 115.858,163.244 115.438,162.785 115.192 C 162.353 114.961,161.997 114.373,161.994 113.886 C 161.987 112.946,161.481 111.909,161.055 111.966 C 160.191 112.082,160.000 111.880,160.000 110.849 C 160.000 110.216,159.695 109.451,159.323 109.149 C 158.863 108.776,158.743 108.760,158.947 109.100 C 159.112 109.375,159.057 109.600,158.824 109.600 C 158.591 109.600,158.400 109.060,158.400 108.400 C 158.400 107.467,158.222 107.200,157.600 107.200 C 157.067 107.200,156.800 106.933,156.800 106.400 C 156.800 105.960,156.620 105.600,156.400 105.600 C 156.180 105.600,156.000 105.409,156.000 105.176 C 156.000 104.943,156.178 104.863,156.395 104.997 C 156.622 105.137,156.689 104.977,156.553 104.621 C 156.422 104.279,156.064 104.000,155.757 104.000 C 155.451 104.000,155.200 103.652,155.200 103.227 C 155.200 102.802,154.840 102.340,154.400 102.200 C 153.960 102.060,153.600 101.598,153.600 101.173 C 153.600 100.748,153.426 100.400,153.213 100.400 C 152.999 100.400,152.929 100.130,153.055 99.800 C 153.182 99.470,153.082 99.200,152.834 99.200 C 152.586 99.200,152.178 98.750,151.927 98.200 C 151.677 97.650,151.264 97.200,151.010 97.200 C 150.756 97.200,150.248 96.570,149.881 95.800 C 149.513 95.030,149.030 94.400,148.806 94.400 C 148.583 94.400,148.400 93.962,148.400 93.427 C 148.400 92.805,148.111 92.362,147.600 92.200 C 147.160 92.060,146.800 91.700,146.800 91.400 C 146.800 91.100,146.440 90.740,146.000 90.600 C 145.399 90.409,145.200 89.995,145.200 88.936 C 145.200 87.862,145.009 87.475,144.400 87.316 C 143.957 87.200,143.600 86.770,143.600 86.353 C 143.600 85.882,143.318 85.600,142.847 85.600 C 142.112 85.600,141.441 84.363,141.581 83.269 C 141.619 82.977,141.280 82.641,140.829 82.524 C 140.378 82.406,140.099 82.164,140.208 81.987 C 140.484 81.540,139.220 80.340,138.768 80.620 C 138.565 80.745,138.400 80.387,138.400 79.824 C 138.400 79.261,138.265 78.821,138.100 78.847 C 137.137 78.999,136.800 78.673,136.800 77.587 C 136.800 76.852,136.552 76.280,136.169 76.133 C 135.823 76.000,135.377 75.465,135.179 74.945 C 134.982 74.425,134.545 74.000,134.210 74.000 C 133.867 74.000,133.600 73.650,133.600 73.200 C 133.600 72.679,133.333 72.400,132.835 72.400 C 132.255 72.400,132.005 72.015,131.802 70.811 C 131.654 69.937,131.335 69.262,131.093 69.311 C 130.851 69.360,130.407 68.905,130.105 68.300 C 129.803 67.695,129.398 67.200,129.205 67.200 C 129.012 67.200,128.740 66.840,128.600 66.400 C 128.460 65.960,127.998 65.600,127.573 65.600 C 127.067 65.600,126.800 65.324,126.800 64.800 C 126.800 64.267,126.533 64.000,126.000 64.000 C 125.467 64.000,125.200 63.733,125.200 63.200 C 125.200 62.760,125.012 62.400,124.782 62.400 C 124.553 62.400,124.418 62.085,124.482 61.700 C 124.561 61.233,124.301 60.958,123.700 60.872 C 123.205 60.802,122.800 60.566,122.800 60.349 C 122.800 60.131,122.978 60.063,123.195 60.197 C 123.422 60.337,123.489 60.177,123.353 59.821 C 123.222 59.479,122.864 59.200,122.557 59.200 C 122.251 59.200,122.000 58.852,122.000 58.427 C 122.000 58.002,121.659 57.546,121.243 57.414 C 120.827 57.282,120.394 56.819,120.281 56.387 C 120.167 55.954,119.809 55.600,119.484 55.600 C 119.159 55.600,118.799 55.240,118.684 54.800 C 118.569 54.360,118.188 54.000,117.837 54.000 C 117.467 54.000,117.200 53.665,117.200 53.200 C 117.200 52.613,116.933 52.400,116.200 52.400 C 115.467 52.400,115.200 52.187,115.200 51.600 C 115.200 51.067,114.933 50.800,114.400 50.800 C 113.867 50.800,113.600 50.533,113.600 50.000 C 113.600 49.560,113.420 49.200,113.200 49.200 C 112.980 49.200,112.800 49.009,112.800 48.776 C 112.800 48.543,112.978 48.463,113.195 48.597 C 113.422 48.737,113.489 48.577,113.353 48.221 C 113.222 47.879,112.876 47.600,112.584 47.600 C 112.293 47.600,111.941 47.244,111.803 46.808 C 111.664 46.373,111.344 46.058,111.090 46.108 C 110.837 46.159,110.444 45.793,110.217 45.295 C 109.991 44.796,109.594 44.470,109.336 44.569 C 108.888 44.741,108.202 43.733,108.336 43.100 C 108.371 42.935,108.133 42.800,107.808 42.800 C 107.482 42.800,107.104 42.356,106.968 41.813 C 106.831 41.271,106.603 40.842,106.460 40.861 C 105.639 40.968,105.200 40.725,105.200 40.163 C 105.200 39.812,104.840 39.431,104.400 39.316 C 103.960 39.201,103.600 38.841,103.600 38.516 C 103.600 38.191,103.246 37.833,102.813 37.719 C 102.381 37.606,101.918 37.173,101.786 36.757 C 101.654 36.341,101.300 36.000,101.000 36.000 C 100.700 36.000,100.340 35.640,100.200 35.200 C 100.060 34.760,99.671 34.400,99.336 34.400 C 99.000 34.400,98.632 34.044,98.518 33.610 C 98.384 33.096,97.839 32.731,96.956 32.565 C 95.983 32.383,95.600 32.098,95.600 31.555 C 95.600 31.016,95.314 30.800,94.600 30.800 C 93.867 30.800,93.600 30.587,93.600 30.000 C 93.600 29.483,93.333 29.200,92.847 29.200 C 92.430 29.200,92.000 28.843,91.884 28.400 C 91.769 27.960,91.388 27.600,91.037 27.600 C 90.667 27.600,90.400 27.265,90.400 26.800 C 90.400 26.255,90.133 26.000,89.563 26.000 C 89.061 26.000,88.641 25.678,88.515 25.197 C 88.368 24.633,87.849 24.321,86.769 24.149 C 85.924 24.013,85.246 23.790,85.264 23.651 C 85.364 22.841,85.126 22.400,84.587 22.400 C 84.251 22.400,83.876 22.143,83.756 21.830 C 83.636 21.516,82.831 21.140,81.969 20.995 C 80.783 20.794,80.400 20.543,80.400 19.965 C 80.400 19.502,80.123 19.200,79.696 19.200 C 79.309 19.200,78.768 18.840,78.493 18.400 C 78.190 17.915,77.560 17.600,76.893 17.600 C 76.226 17.600,75.596 17.285,75.293 16.800 C 74.960 16.267,74.360 16.000,73.493 16.000 C 72.626 16.000,72.026 15.733,71.693 15.200 C 71.374 14.690,70.760 14.400,69.997 14.400 C 69.191 14.400,68.800 14.201,68.800 13.790 C 68.800 13.027,67.207 12.400,65.270 12.400 C 64.226 12.400,63.646 12.165,63.293 11.600 C 62.524 10.369,41.243 10.349,40.922 11.578 " stroke="none" fill="#fbdf05" fill-rule="evenodd"></path><path id="path1" d="M71.500 116.133 C 71.027 117.288,71.141 118.101,72.000 119.704 C 72.440 120.525,72.806 121.603,72.814 122.099 C 72.821 122.594,73.175 123.720,73.600 124.600 C 74.025 125.480,74.379 126.473,74.386 126.806 C 74.394 127.139,74.736 128.039,75.147 128.806 C 75.557 129.573,76.031 130.830,76.200 131.600 C 76.369 132.370,76.843 133.627,77.253 134.394 C 77.664 135.161,78.000 136.068,78.000 136.409 C 78.000 136.751,78.360 137.737,78.800 138.600 C 79.240 139.463,79.600 140.559,79.600 141.036 C 79.600 141.512,79.865 142.122,80.189 142.391 C 80.514 142.660,80.900 143.537,81.048 144.340 C 81.196 145.143,81.651 146.427,82.059 147.194 C 82.466 147.961,82.801 148.861,82.803 149.194 C 82.804 149.527,83.163 150.340,83.600 151.000 C 84.037 151.660,84.402 152.560,84.410 153.000 C 84.418 153.440,84.868 154.700,85.409 155.800 C 85.950 156.900,86.394 158.104,86.396 158.476 C 86.398 158.848,86.575 159.261,86.789 159.393 C 87.003 159.526,87.380 160.391,87.626 161.317 C 87.873 162.243,88.311 163.270,88.600 163.600 C 88.889 163.930,89.327 164.957,89.574 165.883 C 89.820 166.809,90.176 167.662,90.366 167.779 C 90.555 167.896,90.824 168.605,90.965 169.355 C 91.106 170.106,91.475 170.930,91.785 171.187 C 92.095 171.445,92.463 172.228,92.603 172.928 C 92.844 174.137,93.657 176.097,95.202 179.200 C 95.586 179.970,96.024 181.173,96.176 181.872 C 96.327 182.572,96.710 183.359,97.026 183.621 C 97.342 183.883,97.606 184.391,97.613 184.749 C 97.619 185.107,98.068 186.300,98.609 187.400 C 99.150 188.500,99.594 189.603,99.596 189.851 C 99.598 190.099,99.848 190.507,100.150 190.759 C 100.453 191.010,100.816 191.939,100.957 192.823 C 101.099 193.707,101.481 194.533,101.807 194.658 C 102.133 194.783,102.406 195.271,102.412 195.743 C 102.419 196.214,102.868 197.320,103.410 198.200 C 103.952 199.080,104.397 200.091,104.398 200.446 C 104.399 200.801,104.760 201.550,105.200 202.109 C 105.640 202.669,106.000 203.422,106.000 203.784 C 106.000 204.146,106.344 205.107,106.765 205.921 C 108.230 208.752,109.600 211.814,109.600 212.257 C 109.600 212.502,109.870 212.926,110.200 213.200 C 110.530 213.474,110.800 214.104,110.800 214.600 C 110.800 215.096,111.061 215.718,111.380 215.983 C 111.698 216.248,112.164 217.084,112.414 217.841 C 112.664 218.599,113.572 220.610,114.432 222.309 C 115.293 224.009,115.997 225.704,115.998 226.076 C 115.999 226.448,116.167 226.856,116.372 226.983 C 116.923 227.323,119.200 232.018,119.200 232.815 C 119.200 233.193,119.469 233.725,119.797 233.998 C 120.126 234.270,120.582 235.192,120.813 236.047 C 121.043 236.901,121.390 237.600,121.584 237.600 C 121.779 237.600,122.155 238.275,122.420 239.100 C 122.684 239.925,123.134 240.870,123.419 241.200 C 123.704 241.530,124.059 242.288,124.208 242.884 C 124.357 243.480,124.726 244.173,125.029 244.424 C 125.331 244.675,125.694 245.494,125.835 246.245 C 125.976 246.995,126.219 247.688,126.376 247.785 C 126.532 247.882,127.251 249.185,127.972 250.681 C 128.693 252.176,129.441 253.670,129.633 254.000 C 130.605 255.669,132.800 260.342,132.800 260.742 C 132.800 260.994,132.966 261.200,133.169 261.200 C 133.372 261.200,133.758 261.875,134.027 262.700 C 134.296 263.525,134.628 264.290,134.766 264.400 C 134.904 264.510,135.616 265.860,136.350 267.400 C 137.083 268.940,137.841 270.470,138.033 270.800 C 138.225 271.130,139.027 272.701,139.815 274.291 C 140.603 275.881,141.412 277.284,141.613 277.408 C 141.814 277.532,142.191 278.346,142.452 279.217 C 142.713 280.088,143.071 280.800,143.248 280.800 C 143.425 280.800,143.766 281.529,144.006 282.421 C 144.246 283.312,144.691 284.137,144.997 284.254 C 145.302 284.371,145.666 284.990,145.806 285.629 C 145.947 286.268,146.225 286.892,146.426 287.016 C 146.626 287.140,147.452 288.627,148.261 290.320 C 149.071 292.014,149.886 293.503,150.074 293.628 C 151.090 294.308,151.089 298.107,150.073 298.766 C 149.874 298.895,149.412 299.585,149.046 300.300 C 148.679 301.015,148.225 301.600,148.036 301.600 C 147.848 301.600,147.583 301.915,147.448 302.300 C 147.313 302.685,146.749 303.630,146.195 304.400 C 145.641 305.170,144.965 306.145,144.694 306.566 C 144.422 306.987,143.885 307.662,143.500 308.066 C 143.115 308.470,142.800 308.955,142.800 309.145 C 142.800 309.335,142.305 310.124,141.700 310.900 C 141.095 311.675,140.330 312.710,140.000 313.200 C 139.670 313.690,138.905 314.725,138.300 315.500 C 137.695 316.276,137.200 317.136,137.200 317.412 C 137.200 317.688,136.964 318.005,136.676 318.115 C 136.388 318.226,135.275 319.640,134.202 321.258 C 133.129 322.876,132.060 324.380,131.826 324.600 C 131.592 324.820,130.865 325.810,130.211 326.800 C 129.027 328.593,127.656 330.459,126.685 331.600 C 126.404 331.930,125.640 333.004,124.987 333.987 C 124.334 334.969,123.530 336.083,123.200 336.461 C 122.870 336.840,122.293 337.566,121.917 338.075 C 121.541 338.584,120.821 339.540,120.317 340.200 C 119.813 340.860,118.966 342.030,118.435 342.800 C 117.905 343.570,117.227 344.470,116.928 344.800 C 115.806 346.040,112.400 350.512,112.395 350.751 C 112.392 350.888,111.717 351.753,110.895 352.674 C 110.073 353.595,108.502 355.530,107.405 356.974 C 106.276 358.461,105.104 359.600,104.705 359.600 C 104.317 359.600,104.000 359.780,104.000 360.000 C 104.000 361.404,106.018 360.197,108.030 357.588 C 110.321 354.620,111.631 353.010,112.608 351.966 C 112.933 351.618,113.200 351.189,113.200 351.012 C 113.200 350.836,113.605 350.283,114.100 349.784 C 115.149 348.725,115.362 348.455,117.212 345.832 C 117.975 344.750,119.092 343.318,119.693 342.651 C 120.294 341.983,121.068 340.843,121.412 340.118 C 121.756 339.393,122.179 338.800,122.351 338.800 C 122.523 338.800,123.271 337.945,124.012 336.900 C 124.753 335.855,125.476 334.910,125.620 334.800 C 125.763 334.690,126.101 334.181,126.370 333.670 C 126.640 333.158,127.131 332.438,127.462 332.070 C 128.855 330.518,131.601 326.669,131.613 326.252 C 131.620 326.003,132.238 325.191,132.987 324.446 C 133.735 323.701,134.562 322.576,134.823 321.946 C 135.084 321.316,135.460 320.800,135.658 320.800 C 135.857 320.800,136.196 320.395,136.411 319.900 C 136.627 319.405,137.432 318.190,138.202 317.200 C 138.971 316.210,139.722 315.130,139.870 314.800 C 140.019 314.470,140.739 313.575,141.472 312.810 C 142.204 312.046,142.916 311.066,143.053 310.633 C 143.190 310.201,143.988 308.980,144.825 307.920 C 145.663 306.861,146.462 305.635,146.601 305.197 C 146.740 304.759,147.031 304.400,147.248 304.400 C 147.464 304.400,147.830 303.860,148.060 303.200 C 148.290 302.540,148.610 302.000,148.772 302.000 C 149.279 302.000,151.483 298.256,151.708 297.014 C 151.900 295.951,150.424 292.216,148.777 289.600 C 148.569 289.270,148.210 288.550,147.979 288.000 C 147.748 287.450,147.122 286.280,146.587 285.400 C 146.053 284.520,145.413 283.350,145.165 282.800 C 144.917 282.250,144.520 281.440,144.283 281.000 C 144.047 280.560,143.605 279.660,143.301 279.000 C 142.998 278.340,142.577 277.530,142.367 277.200 C 142.156 276.870,141.720 276.027,141.398 275.327 C 141.076 274.627,140.649 273.954,140.450 273.831 C 140.251 273.708,139.968 273.125,139.820 272.535 C 139.672 271.946,139.202 271.020,138.775 270.478 C 138.349 269.936,138.000 269.230,138.000 268.909 C 138.000 268.589,137.640 267.869,137.200 267.309 C 136.760 266.750,136.400 266.030,136.400 265.709 C 136.400 265.389,136.040 264.669,135.600 264.109 C 135.160 263.550,134.800 262.769,134.800 262.375 C 134.800 261.980,134.567 261.419,134.283 261.129 C 133.999 260.838,133.181 259.340,132.467 257.800 C 131.753 256.260,130.994 254.730,130.781 254.400 C 130.568 254.070,130.196 253.350,129.954 252.800 C 129.712 252.250,129.353 251.530,129.156 251.200 C 128.959 250.870,128.619 250.150,128.399 249.600 C 128.180 249.050,127.819 248.330,127.597 248.000 C 127.376 247.670,126.999 246.950,126.760 246.400 C 126.520 245.850,125.619 243.960,124.756 242.200 C 123.893 240.440,123.190 238.782,123.193 238.516 C 123.197 238.249,122.861 237.709,122.447 237.316 C 122.032 236.922,121.571 236.027,121.421 235.328 C 121.271 234.628,120.909 233.856,120.616 233.613 C 120.323 233.370,119.970 232.566,119.831 231.826 C 119.692 231.086,119.314 230.260,118.989 229.991 C 118.665 229.722,118.397 229.299,118.394 229.051 C 118.391 228.803,117.581 226.998,116.594 225.040 C 115.607 223.082,114.800 221.265,114.800 221.001 C 114.800 220.738,114.440 220.107,114.000 219.600 C 113.560 219.093,113.200 218.283,113.200 217.800 C 113.200 217.317,112.840 216.507,112.400 216.000 C 111.960 215.493,111.600 214.826,111.600 214.518 C 111.600 214.210,111.243 213.293,110.806 212.479 C 109.638 210.302,108.000 206.585,108.000 206.110 C 108.000 205.884,107.749 205.490,107.442 205.235 C 107.135 204.980,106.770 204.166,106.631 203.426 C 106.492 202.686,106.118 201.864,105.800 201.600 C 105.482 201.336,105.107 200.513,104.968 199.772 C 104.829 199.031,104.375 198.032,103.958 197.551 C 103.541 197.071,103.200 196.329,103.200 195.902 C 103.200 195.475,102.840 194.669,102.400 194.109 C 101.884 193.454,101.600 192.486,101.600 191.389 C 101.600 190.336,101.396 189.607,101.065 189.480 C 100.464 189.250,98.400 185.249,98.400 184.314 C 98.400 183.981,98.040 183.250,97.600 182.691 C 97.160 182.131,96.800 181.430,96.800 181.131 C 96.800 180.832,96.440 179.916,96.000 179.096 C 95.560 178.275,95.200 177.359,95.200 177.061 C 95.200 176.763,94.750 175.673,94.200 174.638 C 93.650 173.604,93.200 172.429,93.200 172.028 C 93.200 171.626,92.930 171.074,92.600 170.800 C 92.270 170.526,92.000 169.991,92.000 169.611 C 92.000 169.230,91.550 168.073,91.000 167.038 C 90.450 166.004,90.000 164.831,90.000 164.433 C 90.000 164.034,89.640 163.250,89.200 162.691 C 88.760 162.131,88.400 161.340,88.400 160.931 C 88.400 160.522,88.064 159.561,87.653 158.794 C 87.243 158.027,86.781 156.827,86.628 156.128 C 86.474 155.428,86.090 154.641,85.774 154.379 C 85.458 154.117,85.198 153.519,85.196 153.051 C 85.194 152.583,84.750 151.300,84.209 150.200 C 83.668 149.100,83.219 147.925,83.213 147.589 C 83.206 147.253,82.953 146.623,82.651 146.189 C 82.349 145.755,81.970 144.770,81.808 144.000 C 81.646 143.230,81.173 142.039,80.757 141.353 C 80.341 140.667,80.000 139.764,80.000 139.347 C 80.000 138.930,79.640 137.916,79.200 137.096 C 78.760 136.275,78.400 135.285,78.400 134.896 C 78.400 134.506,78.040 133.516,77.600 132.696 C 77.160 131.875,76.800 130.885,76.800 130.496 C 76.800 130.106,76.440 129.116,76.000 128.296 C 75.560 127.475,75.200 126.499,75.200 126.128 C 75.200 125.756,74.858 124.721,74.440 123.826 C 74.022 122.932,73.464 121.255,73.200 120.100 C 72.936 118.945,72.570 118.000,72.385 118.000 C 72.201 118.000,71.994 117.415,71.925 116.700 C 71.827 115.681,71.735 115.558,71.500 116.133 M164.100 125.340 C 165.145 126.355,166.000 127.370,166.000 127.593 C 166.000 128.386,168.353 128.036,168.814 127.174 C 169.410 126.059,168.714 125.251,167.377 125.506 C 166.700 125.636,166.064 125.426,165.480 124.880 C 163.366 122.907,162.049 123.346,164.100 125.340 M176.047 127.171 C 175.646 127.419,175.669 127.541,176.154 127.727 C 176.495 127.858,176.873 127.805,176.994 127.610 C 177.309 127.100,176.654 126.796,176.047 127.171 M177.163 127.844 C 176.893 128.170,176.476 128.361,176.236 128.269 C 175.979 128.170,175.767 128.696,175.719 129.551 C 175.573 132.190,175.163 134.989,174.805 135.800 C 174.611 136.240,174.340 137.680,174.202 139.000 C 173.402 146.662,172.750 150.491,172.110 151.279 C 171.877 151.565,171.587 153.150,171.465 154.800 C 171.206 158.315,170.884 160.290,170.388 161.400 C 170.192 161.840,169.951 163.370,169.854 164.800 C 169.757 166.230,169.465 168.300,169.207 169.400 C 168.948 170.500,168.577 172.750,168.382 174.400 C 167.975 177.852,167.408 181.641,166.827 184.800 C 166.604 186.010,166.309 187.659,166.171 188.464 C 165.906 190.015,165.324 190.372,163.000 190.407 C 159.416 190.462,163.559 191.496,168.293 191.729 C 171.102 191.867,177.720 192.184,183.000 192.434 C 188.280 192.685,192.780 193.034,193.000 193.210 C 193.342 193.485,213.504 194.591,215.200 194.428 C 217.376 194.219,223.768 194.462,224.356 194.776 C 224.747 194.986,228.202 195.353,232.034 195.594 C 235.865 195.834,239.810 196.220,240.800 196.453 C 241.790 196.686,245.480 197.111,249.000 197.398 C 252.520 197.685,256.480 198.201,257.800 198.546 C 259.120 198.890,261.662 199.178,263.450 199.186 C 265.358 199.194,267.422 199.459,268.450 199.828 C 269.412 200.174,271.910 200.549,274.000 200.661 C 276.090 200.773,278.610 201.141,279.600 201.478 C 280.590 201.815,283.004 202.221,284.965 202.380 C 288.176 202.640,288.616 202.775,289.380 203.735 C 289.848 204.321,290.549 204.800,290.939 204.800 C 291.357 204.800,291.535 204.982,291.372 205.245 C 290.865 206.066,292.175 206.388,296.053 206.394 C 299.568 206.399,299.925 206.470,300.116 207.200 C 300.307 207.930,300.662 208.000,304.163 208.000 C 307.895 208.000,308.235 208.114,308.047 209.300 C 308.021 209.465,308.135 209.579,308.300 209.553 C 308.465 209.527,308.780 209.546,309.000 209.595 C 309.933 209.805,310.754 209.867,313.453 209.932 C 315.969 209.992,316.332 210.098,316.522 210.825 C 316.641 211.278,316.977 211.617,317.269 211.577 C 318.670 211.387,323.194 211.635,323.153 211.900 C 323.046 212.575,323.218 213.197,323.500 213.153 C 325.924 212.770,329.600 213.280,329.600 214.000 C 329.600 214.440,329.735 214.779,329.900 214.753 C 331.789 214.454,334.373 214.885,334.578 215.532 C 334.763 216.113,335.283 216.283,337.105 216.356 C 338.732 216.422,339.640 216.675,340.226 217.224 C 340.809 217.772,341.623 218.000,342.992 218.000 C 344.060 218.000,344.815 218.118,344.670 218.263 C 344.014 218.919,345.429 219.600,347.449 219.600 C 349.312 219.600,349.600 219.704,349.600 220.376 C 349.600 220.968,350.005 221.237,351.300 221.507 C 352.249 221.704,352.956 222.068,352.900 222.330 C 352.845 222.589,353.025 222.827,353.300 222.861 C 353.575 222.894,353.980 222.964,354.200 223.015 C 354.420 223.066,355.024 223.128,355.543 223.154 C 356.182 223.185,356.416 223.383,356.268 223.767 C 356.016 224.423,356.789 224.800,358.386 224.800 C 359.170 224.800,359.569 225.040,359.716 225.600 C 359.831 226.040,360.212 226.400,360.563 226.400 C 360.933 226.400,361.200 226.735,361.200 227.200 C 361.200 227.716,361.467 228.000,361.951 228.000 C 362.832 228.000,363.725 228.929,363.297 229.401 C 363.133 229.580,363.315 229.614,363.700 229.476 C 364.344 229.245,364.624 229.779,364.447 230.900 C 364.421 231.065,364.760 231.200,365.200 231.200 C 366.428 231.200,366.428 239.343,365.200 240.000 C 364.760 240.235,364.400 240.762,364.400 241.170 C 364.400 241.626,364.135 241.890,363.710 241.856 C 363.331 241.825,362.998 242.070,362.971 242.400 C 362.944 242.730,362.894 243.405,362.861 243.900 C 362.825 244.431,362.539 244.800,362.163 244.800 C 361.812 244.800,361.431 245.160,361.316 245.600 C 361.201 246.040,360.841 246.400,360.516 246.400 C 360.191 246.400,359.831 246.760,359.716 247.200 C 359.596 247.660,359.170 248.000,358.716 248.000 C 358.262 248.000,357.836 248.340,357.716 248.800 C 357.601 249.240,357.348 249.623,357.153 249.650 C 356.757 249.706,356.151 249.851,355.700 249.997 C 355.535 250.051,355.220 250.058,355.000 250.014 C 354.780 249.970,354.726 250.060,354.881 250.214 C 355.269 250.603,354.098 251.708,353.615 251.409 C 353.400 251.276,353.109 251.625,352.968 252.184 C 352.726 253.148,352.030 253.436,350.460 253.221 C 350.163 253.180,350.026 253.318,350.155 253.528 C 350.510 254.101,349.443 254.814,348.083 254.913 C 347.420 254.961,346.948 255.115,347.035 255.255 C 347.304 255.693,346.251 256.317,345.000 256.458 C 344.340 256.533,343.509 256.910,343.153 257.297 C 342.797 257.684,341.954 258.000,341.280 258.000 C 340.405 258.000,339.981 258.229,339.800 258.800 C 339.573 259.516,337.678 259.928,335.900 259.647 C 335.735 259.621,335.600 259.791,335.600 260.024 C 335.600 260.257,335.420 260.336,335.200 260.200 C 334.980 260.064,334.800 260.233,334.800 260.576 C 334.800 261.118,333.354 261.459,331.924 261.255 C 331.773 261.234,331.536 261.573,331.397 262.008 C 331.207 262.607,330.787 262.801,329.673 262.805 C 327.426 262.814,326.400 263.203,326.400 264.047 C 326.400 264.757,324.245 265.068,320.473 264.903 C 320.184 264.890,320.040 264.973,320.154 265.088 C 320.728 265.661,319.060 266.400,317.191 266.400 C 315.462 266.400,315.091 266.530,314.916 267.200 C 314.729 267.916,314.370 268.000,311.516 268.000 C 308.662 268.000,308.303 268.084,308.116 268.800 C 307.932 269.502,307.543 269.607,304.953 269.660 C 300.930 269.742,301.086 269.714,300.300 270.500 C 299.700 271.100,295.494 271.562,293.500 271.247 C 293.335 271.221,293.200 271.560,293.200 272.000 C 293.200 272.709,292.933 272.800,290.856 272.800 C 287.258 272.800,284.800 273.228,284.800 273.854 C 284.800 274.262,284.018 274.417,281.700 274.468 C 279.995 274.506,278.330 274.577,278.000 274.626 C 277.670 274.675,277.175 274.734,276.900 274.757 C 276.625 274.781,276.421 274.935,276.447 275.100 C 276.638 276.308,276.307 276.400,271.763 276.400 C 267.462 276.400,267.110 276.458,266.916 277.200 C 266.720 277.948,263.116 278.303,257.704 278.108 C 257.432 278.098,257.295 278.230,257.400 278.400 C 257.895 279.202,256.204 279.566,251.718 279.624 C 247.329 279.681,246.852 279.758,246.673 280.443 C 246.493 281.130,246.050 281.200,241.866 281.200 C 238.727 281.200,237.089 281.360,236.729 281.700 C 236.438 281.975,235.427 282.725,234.483 283.366 C 233.400 284.101,232.846 284.742,232.983 285.099 C 233.102 285.411,233.200 285.741,233.200 285.833 C 233.200 286.533,245.136 285.934,245.800 285.200 C 246.484 284.444,247.032 284.400,255.686 284.400 C 260.724 284.400,264.758 284.256,264.650 284.081 C 264.002 283.032,265.287 282.826,272.715 282.783 C 277.449 282.756,280.400 282.588,280.400 282.346 C 280.400 282.130,280.578 282.063,280.795 282.197 C 281.022 282.337,281.089 282.177,280.953 281.821 C 280.749 281.291,289.990 280.756,292.500 281.153 C 292.665 281.179,292.800 280.840,292.800 280.400 C 292.800 279.654,293.089 279.595,297.100 279.532 C 302.903 279.439,302.698 279.465,303.586 278.705 C 304.195 278.183,305.269 278.019,308.390 277.969 C 312.266 277.909,312.417 277.873,312.647 276.953 C 312.880 276.029,313.006 276.000,316.881 276.000 C 320.538 276.000,320.893 275.933,321.084 275.200 C 321.281 274.449,324.011 274.108,328.327 274.297 C 328.616 274.310,328.753 274.220,328.630 274.097 C 327.950 273.417,329.515 272.799,331.949 272.787 C 334.425 272.775,336.362 272.095,335.727 271.460 C 335.518 271.251,339.407 270.992,340.476 271.145 C 340.627 271.166,340.864 270.827,341.003 270.392 C 341.216 269.720,341.613 269.600,343.627 269.600 C 345.733 269.600,346.000 269.510,346.000 268.800 C 346.000 268.039,347.994 267.660,350.331 267.977 C 350.623 268.017,350.959 267.678,351.078 267.225 C 351.254 266.552,351.612 266.400,353.023 266.400 C 353.974 266.400,354.866 266.217,355.004 265.993 C 355.142 265.770,355.427 265.693,355.638 265.823 C 355.848 265.953,355.994 265.911,355.963 265.730 C 355.779 264.673,356.115 264.400,357.600 264.400 C 358.933 264.400,359.200 264.267,359.200 263.600 C 359.200 262.930,359.467 262.800,360.837 262.800 C 362.138 262.800,362.518 262.636,362.684 262.000 C 362.843 261.394,363.230 261.200,364.284 261.200 C 365.338 261.200,365.725 261.006,365.884 260.400 C 366.043 259.794,366.430 259.600,367.484 259.600 C 368.538 259.600,368.925 259.406,369.084 258.800 C 369.272 258.081,370.642 257.704,372.130 257.963 C 372.311 257.994,372.345 257.835,372.206 257.610 C 372.067 257.384,372.154 257.200,372.400 257.200 C 372.646 257.200,372.736 257.020,372.600 256.800 C 372.464 256.580,372.633 256.377,372.976 256.350 C 373.587 256.301,374.098 256.198,374.700 256.003 C 374.865 255.949,375.148 255.931,375.330 255.963 C 375.511 255.994,375.545 255.835,375.406 255.610 C 375.267 255.384,375.354 255.200,375.600 255.200 C 375.846 255.200,375.936 255.020,375.800 254.800 C 375.660 254.573,375.996 254.400,376.576 254.400 C 377.139 254.400,377.579 254.265,377.553 254.100 C 377.413 253.216,377.684 252.800,378.400 252.800 C 378.933 252.800,379.200 252.533,379.200 252.000 C 379.200 251.467,379.467 251.200,380.000 251.200 C 380.533 251.200,380.800 250.933,380.800 250.400 C 380.800 249.867,381.067 249.600,381.600 249.600 C 382.133 249.600,382.400 249.333,382.400 248.800 C 382.400 248.267,382.667 248.000,383.200 248.000 C 383.640 248.000,384.000 247.834,384.000 247.632 C 384.000 247.429,384.810 246.453,385.800 245.463 C 386.790 244.473,387.600 243.490,387.600 243.278 C 387.600 243.067,387.960 242.799,388.400 242.684 C 389.006 242.525,389.200 242.138,389.200 241.084 C 389.200 240.030,389.394 239.643,390.000 239.484 C 390.606 239.325,390.800 238.938,390.800 237.884 C 390.800 236.830,390.994 236.443,391.600 236.284 C 392.242 236.116,392.400 235.738,392.400 234.371 C 392.400 233.434,392.518 232.785,392.663 232.930 C 393.760 234.026,394.000 232.082,394.000 222.114 C 394.000 212.262,393.974 211.918,393.200 211.716 C 392.573 211.552,392.400 211.170,392.400 209.953 C 392.400 208.667,392.263 208.400,391.600 208.400 C 390.852 208.400,390.493 207.253,390.786 205.800 C 390.830 205.580,390.733 205.533,390.570 205.697 C 390.087 206.179,389.200 205.178,389.200 204.151 C 389.200 203.628,389.065 203.221,388.900 203.247 C 388.016 203.387,387.600 203.116,387.600 202.400 C 387.600 201.867,387.333 201.600,386.800 201.600 C 386.267 201.600,386.000 201.333,386.000 200.800 C 386.000 200.267,385.733 200.000,385.200 200.000 C 384.667 200.000,384.400 199.733,384.400 199.200 C 384.400 198.613,384.133 198.400,383.400 198.400 C 382.667 198.400,382.400 198.187,382.400 197.600 C 382.400 197.067,382.133 196.800,381.600 196.800 C 381.013 196.800,380.800 196.533,380.800 195.800 C 380.800 195.067,380.587 194.800,380.000 194.800 C 379.556 194.800,379.200 194.533,379.200 194.200 C 379.200 193.870,378.962 193.600,378.672 193.600 C 378.382 193.600,377.770 193.195,377.312 192.700 C 375.950 191.227,374.572 190.208,373.761 190.076 C 373.343 190.008,372.753 189.603,372.451 189.176 C 372.149 188.749,371.654 188.400,371.351 188.400 C 370.852 188.400,370.625 187.907,370.753 187.100 C 370.779 186.935,370.665 186.821,370.500 186.847 C 368.879 187.103,367.600 186.730,367.600 186.000 C 367.600 185.408,367.333 185.200,366.576 185.200 C 365.996 185.200,365.660 185.027,365.800 184.800 C 365.936 184.580,365.846 184.400,365.600 184.400 C 365.354 184.400,365.267 184.216,365.406 183.990 C 365.545 183.765,365.511 183.619,365.330 183.666 C 364.526 183.876,362.400 183.083,362.400 182.573 C 362.400 182.227,361.796 181.913,360.835 181.759 C 359.769 181.589,359.207 181.268,359.072 180.754 C 358.952 180.296,358.520 180.000,357.971 180.000 C 357.474 180.000,357.178 179.889,357.314 179.752 C 357.790 179.276,356.447 178.400,355.241 178.400 C 354.347 178.400,354.084 178.247,354.246 177.824 C 354.405 177.410,354.038 177.169,352.933 176.964 C 352.090 176.807,351.165 176.346,350.877 175.939 C 350.542 175.465,349.862 175.200,348.977 175.200 C 348.067 175.200,347.600 175.011,347.600 174.643 C 347.600 174.005,346.751 173.600,345.413 173.600 C 344.896 173.600,344.230 173.201,343.895 172.689 C 343.567 172.188,342.896 171.747,342.404 171.710 C 341.913 171.673,341.154 171.321,340.719 170.927 C 340.284 170.533,339.719 170.191,339.464 170.166 C 339.209 170.142,338.576 170.094,338.057 170.061 C 337.381 170.017,337.182 169.824,337.353 169.379 C 337.489 169.023,337.422 168.863,337.195 169.003 C 336.978 169.137,336.800 169.090,336.800 168.898 C 336.800 168.706,335.949 168.505,334.909 168.452 C 333.119 168.359,332.214 167.825,332.650 167.119 C 332.758 166.944,332.129 166.800,331.251 166.800 C 330.011 166.800,329.598 166.623,329.403 166.008 C 329.264 165.573,329.027 165.234,328.876 165.255 C 327.639 165.432,325.597 165.129,325.800 164.799 C 326.125 164.274,324.312 163.600,322.574 163.600 C 321.328 163.600,320.995 163.296,321.153 162.300 C 321.179 162.135,320.030 162.000,318.600 162.000 C 316.155 162.000,316.000 161.945,316.000 161.082 C 316.000 160.309,315.768 160.148,314.534 160.065 C 312.839 159.951,312.293 159.697,312.617 159.172 C 312.744 158.968,312.612 158.773,312.324 158.741 C 312.036 158.708,311.530 158.645,311.200 158.600 C 310.870 158.555,309.925 158.492,309.100 158.459 C 308.275 158.427,307.621 158.265,307.647 158.100 C 307.797 157.150,307.385 156.928,305.309 156.844 C 303.159 156.757,302.187 156.268,302.656 155.509 C 302.768 155.328,302.711 155.206,302.530 155.237 C 300.493 155.591,298.000 155.131,298.000 154.400 C 298.000 153.684,297.733 153.600,295.447 153.600 C 293.230 153.600,292.866 153.495,292.684 152.800 C 292.506 152.120,292.138 152.000,290.237 152.000 C 288.124 152.000,287.778 151.804,287.953 150.700 C 287.979 150.535,286.873 150.400,285.495 150.400 C 283.290 150.400,282.942 150.293,282.595 149.510 C 282.252 148.737,281.833 148.600,279.410 148.470 C 277.232 148.353,276.503 148.153,276.087 147.560 C 275.675 146.972,275.063 146.800,273.377 146.800 C 271.524 146.800,271.200 146.690,271.200 146.058 C 271.200 145.407,270.823 145.307,268.109 145.235 C 265.228 145.159,264.140 144.745,264.650 143.919 C 264.758 143.744,263.582 143.600,262.036 143.600 C 259.792 143.600,259.268 143.487,259.440 143.040 C 259.558 142.733,259.434 142.345,259.165 142.179 C 258.827 141.970,258.775 142.050,258.997 142.438 C 259.256 142.893,259.214 142.904,258.779 142.500 C 258.459 142.204,257.151 142.000,255.567 142.000 C 253.230 142.000,252.867 141.899,252.684 141.200 C 252.497 140.483,252.138 140.400,249.220 140.400 C 246.342 140.400,245.979 140.319,246.082 139.700 C 246.160 139.240,245.960 139.019,245.500 139.056 C 245.115 139.086,244.800 138.971,244.800 138.800 C 244.800 138.629,244.575 138.497,244.300 138.507 C 240.875 138.635,238.000 138.335,238.000 137.850 C 238.000 137.212,236.290 136.800,233.639 136.800 C 232.273 136.800,231.596 136.587,231.093 136.000 C 230.502 135.310,229.913 135.200,226.804 135.200 C 223.579 135.200,223.200 135.123,223.200 134.468 C 223.200 134.037,222.913 133.738,222.500 133.740 C 217.288 133.762,215.525 133.572,215.970 133.036 C 216.329 132.603,216.326 132.402,215.958 132.174 C 215.632 131.973,215.581 132.046,215.801 132.401 C 216.052 132.808,215.908 132.852,215.163 132.600 C 214.633 132.420,212.760 132.198,211.000 132.105 C 208.787 131.988,207.576 131.734,207.072 131.281 C 206.530 130.792,205.312 130.585,202.281 130.465 C 199.118 130.339,198.112 130.159,197.742 129.652 C 197.358 129.126,196.336 128.974,192.471 128.867 C 188.147 128.748,187.657 128.660,187.476 127.970 C 187.209 126.948,178.000 126.836,177.163 127.844 M149.305 190.687 C 149.914 190.779,150.814 190.777,151.305 190.682 C 151.797 190.587,151.300 190.511,150.200 190.514 C 149.100 190.517,148.697 190.595,149.305 190.687 M67.400 272.400 C 67.260 272.627,67.596 272.800,68.176 272.800 C 69.155 272.800,69.200 272.901,69.206 275.100 C 69.210 276.733,69.325 277.226,69.600 276.800 C 70.147 275.953,70.094 273.054,69.520 272.480 C 68.937 271.897,67.739 271.852,67.400 272.400 " stroke="none" fill="#65b23c" fill-rule="evenodd"></path><path id="path2" d="M101.600 190.394 C 101.600 190.648,108.651 190.762,121.500 190.714 C 138.802 190.650,140.121 190.606,131.600 190.375 C 115.705 189.945,101.600 189.954,101.600 190.394 M153.400 191.053 C 156.132 191.338,163.092 191.378,162.664 191.106 C 162.409 190.944,159.950 190.838,157.200 190.870 C 154.450 190.902,152.740 190.984,153.400 191.053 M289.992 205.410 C 289.714 205.745,289.594 206.127,289.726 206.259 C 290.135 206.669,291.200 206.057,291.200 205.413 C 291.200 204.629,290.641 204.628,289.992 205.410 M287.646 209.300 C 287.621 209.685,287.420 210.000,287.200 210.000 C 286.980 210.000,286.814 210.405,286.832 210.900 C 286.853 211.501,286.939 211.601,287.092 211.200 C 287.217 210.870,287.491 210.488,287.699 210.352 C 287.908 210.216,287.992 209.766,287.886 209.352 C 287.717 208.693,287.687 208.687,287.646 209.300 M286.032 211.680 C 286.014 212.054,285.685 212.544,285.300 212.768 C 284.637 213.154,284.637 213.176,285.313 213.188 C 286.093 213.201,286.595 212.323,286.269 211.513 C 286.137 211.183,286.052 211.243,286.032 211.680 M284.454 213.873 C 284.425 214.133,284.040 214.460,283.600 214.600 C 282.703 214.885,282.494 216.400,283.351 216.400 C 284.202 216.400,284.880 215.344,284.685 214.322 C 284.588 213.815,284.484 213.613,284.454 213.873 M279.870 218.263 C 279.725 218.408,279.807 218.768,280.052 219.063 C 280.404 219.486,280.297 219.601,279.549 219.606 C 278.790 219.611,278.720 219.690,279.200 220.000 C 279.618 220.270,279.648 220.405,279.300 220.444 C 278.423 220.542,278.210 220.606,277.728 220.913 C 277.468 221.078,277.159 221.057,277.040 220.865 C 276.772 220.432,253.554 231.928,252.279 233.126 C 251.767 233.606,250.983 234.000,250.536 234.000 C 250.089 234.000,249.398 234.360,249.000 234.800 C 248.602 235.240,247.882 235.600,247.400 235.600 C 246.918 235.600,246.198 235.960,245.800 236.400 C 245.402 236.840,244.570 237.200,243.952 237.200 C 243.238 237.200,242.672 237.491,242.400 238.000 C 242.132 238.501,241.562 238.800,240.875 238.800 C 240.271 238.800,239.470 239.160,239.093 239.600 C 238.716 240.040,237.987 240.400,237.474 240.400 C 236.960 240.400,236.117 240.850,235.600 241.400 C 235.083 241.950,234.270 242.400,233.792 242.400 C 233.315 242.400,232.598 242.760,232.200 243.200 C 231.802 243.640,231.082 244.000,230.600 244.000 C 230.118 244.000,229.398 244.360,229.000 244.800 C 228.602 245.240,227.882 245.600,227.400 245.600 C 226.918 245.600,226.198 245.960,225.800 246.400 C 225.402 246.840,224.682 247.200,224.200 247.200 C 223.718 247.200,222.998 247.560,222.600 248.000 C 222.202 248.440,221.370 248.800,220.752 248.800 C 220.038 248.800,219.472 249.091,219.200 249.600 C 218.923 250.117,218.362 250.400,217.615 250.400 C 216.857 250.400,216.187 250.745,215.671 251.400 C 215.215 251.981,214.474 252.400,213.904 252.400 C 213.365 252.400,212.598 252.760,212.200 253.200 C 211.802 253.640,211.082 254.000,210.600 254.000 C 210.118 254.000,209.398 254.360,209.000 254.800 C 208.602 255.240,207.882 255.600,207.400 255.600 C 206.918 255.600,206.198 255.960,205.800 256.400 C 205.402 256.840,204.682 257.200,204.200 257.200 C 203.718 257.200,202.998 257.560,202.600 258.000 C 202.202 258.440,201.370 258.800,200.752 258.800 C 200.038 258.800,199.472 259.091,199.200 259.600 C 198.921 260.121,198.362 260.400,197.600 260.400 C 196.838 260.400,196.279 260.679,196.000 261.200 C 195.721 261.722,195.162 262.000,194.395 262.000 C 193.581 262.000,193.016 262.308,192.563 263.000 C 192.129 263.662,191.539 264.000,190.816 264.000 C 190.215 264.000,189.398 264.360,189.000 264.800 C 188.602 265.240,187.882 265.600,187.400 265.600 C 186.918 265.600,186.198 265.960,185.800 266.400 C 185.402 266.840,184.682 267.200,184.200 267.200 C 183.718 267.200,182.998 267.560,182.600 268.000 C 182.202 268.440,181.407 268.800,180.834 268.800 C 180.226 268.800,179.585 269.133,179.293 269.600 C 178.976 270.107,178.360 270.400,177.611 270.400 C 176.838 270.400,176.280 270.677,176.000 271.200 C 175.732 271.701,175.162 272.000,174.475 272.000 C 173.871 272.000,173.070 272.360,172.693 272.800 C 172.316 273.240,171.647 273.600,171.207 273.600 C 170.274 273.600,168.400 275.108,168.400 275.860 C 168.400 276.151,168.142 276.276,167.806 276.147 C 167.417 275.998,167.076 276.274,166.822 276.943 C 166.436 277.957,165.849 278.737,164.100 280.556 C 163.605 281.070,163.200 281.668,163.200 281.884 C 163.200 282.100,162.840 282.602,162.400 283.000 C 161.960 283.398,161.600 283.965,161.600 284.259 C 161.600 284.553,161.240 285.018,160.800 285.293 C 160.360 285.568,160.000 285.993,160.000 286.238 C 160.000 286.483,159.550 287.169,159.000 287.762 C 158.450 288.356,158.000 289.093,158.000 289.401 C 158.000 289.708,157.771 290.104,157.490 290.280 C 157.210 290.456,156.677 291.050,156.307 291.600 C 155.936 292.150,154.908 293.590,154.023 294.800 C 152.170 297.333,148.804 302.196,148.164 303.266 C 147.925 303.667,147.430 304.325,147.064 304.729 C 146.699 305.133,146.400 305.604,146.400 305.776 C 146.400 305.948,145.704 306.924,144.854 307.944 C 144.004 308.965,143.194 310.165,143.056 310.610 C 142.917 311.056,142.204 312.046,141.472 312.810 C 140.739 313.575,140.019 314.470,139.870 314.800 C 139.722 315.130,138.971 316.210,138.202 317.200 C 137.432 318.190,136.627 319.405,136.411 319.900 C 136.196 320.395,135.857 320.800,135.658 320.800 C 135.460 320.800,135.084 321.316,134.823 321.946 C 134.562 322.576,133.735 323.701,132.987 324.446 C 132.238 325.191,131.620 326.003,131.613 326.252 C 131.601 326.669,128.855 330.518,127.462 332.070 C 127.131 332.438,126.640 333.158,126.370 333.670 C 126.101 334.181,125.763 334.690,125.620 334.800 C 125.476 334.910,124.753 335.855,124.012 336.900 C 123.271 337.945,122.523 338.800,122.351 338.800 C 122.179 338.800,121.756 339.393,121.412 340.118 C 121.068 340.843,120.294 341.983,119.693 342.651 C 119.092 343.318,117.975 344.750,117.212 345.832 C 115.362 348.455,115.149 348.725,114.100 349.784 C 113.605 350.283,113.200 350.856,113.200 351.057 C 113.200 351.258,112.885 351.721,112.500 352.086 C 112.115 352.451,111.485 353.166,111.100 353.675 C 106.608 359.607,106.014 360.194,104.092 360.601 C 102.577 360.923,102.174 361.184,102.071 361.912 C 101.987 362.499,101.707 362.782,101.280 362.711 C 100.851 362.639,100.616 362.881,100.609 363.399 C 100.604 363.838,100.375 364.221,100.100 364.249 C 99.825 364.277,99.433 364.322,99.228 364.350 C 99.023 364.378,98.794 364.805,98.718 365.300 C 98.643 365.795,98.360 366.155,98.091 366.100 C 97.821 366.045,97.578 366.180,97.550 366.400 C 97.523 366.620,97.455 366.980,97.400 367.200 C 97.345 367.420,97.278 367.960,97.250 368.400 C 97.218 368.917,96.917 369.200,96.400 369.200 C 95.867 369.200,95.600 369.467,95.600 370.000 C 95.600 370.533,95.333 370.800,94.800 370.800 C 94.267 370.800,94.000 371.067,94.000 371.600 C 94.000 372.133,93.733 372.400,93.200 372.400 C 92.608 372.400,92.400 372.667,92.400 373.424 C 92.400 373.987,92.235 374.345,92.032 374.220 C 91.550 373.922,90.400 375.085,90.400 375.871 C 90.400 376.251,90.172 376.398,89.805 376.257 C 89.477 376.132,89.232 376.157,89.258 376.314 C 89.440 377.381,88.616 379.200,87.950 379.200 C 87.467 379.200,87.200 379.484,87.200 380.000 C 87.200 380.533,86.933 380.800,86.400 380.800 C 85.883 380.800,85.600 381.067,85.600 381.553 C 85.600 381.970,85.243 382.400,84.800 382.516 C 84.360 382.631,84.000 383.000,84.000 383.336 C 84.000 383.671,83.659 384.054,83.243 384.186 C 82.827 384.318,82.389 384.799,82.270 385.253 C 82.151 385.708,81.861 385.962,81.626 385.816 C 81.388 385.669,81.022 386.015,80.800 386.600 C 80.581 387.176,80.242 387.549,80.046 387.428 C 79.639 387.177,78.694 388.161,79.025 388.491 C 79.144 388.611,78.773 389.078,78.200 389.528 C 77.628 389.979,77.150 390.494,77.139 390.674 C 77.129 390.853,76.958 390.955,76.760 390.900 C 76.562 390.845,76.400 390.993,76.400 391.229 C 76.400 391.811,75.353 392.820,75.057 392.524 C 74.926 392.393,74.690 392.626,74.532 393.043 C 74.172 393.993,73.389 394.800,72.829 394.800 C 72.593 394.800,72.445 394.964,72.500 395.164 C 72.635 395.657,65.652 402.400,65.006 402.400 C 64.724 402.400,64.399 402.760,64.284 403.200 C 64.159 403.679,63.738 404.000,63.237 404.000 C 62.676 404.000,62.400 404.255,62.400 404.773 C 62.400 405.198,62.040 405.660,61.600 405.800 C 61.160 405.940,60.800 406.312,60.800 406.627 C 60.800 406.942,60.440 407.200,60.000 407.200 C 59.467 407.200,59.200 407.467,59.200 408.000 C 59.200 408.519,58.933 408.800,58.442 408.800 C 58.025 408.800,57.260 409.247,56.742 409.793 C 56.224 410.339,55.581 410.789,55.314 410.793 C 55.047 410.797,54.635 411.160,54.400 411.600 C 54.165 412.040,53.618 412.400,53.186 412.400 C 52.685 412.400,52.400 412.671,52.400 413.149 C 52.400 413.713,52.006 413.961,50.800 414.154 C 49.765 414.319,49.200 414.620,49.200 415.005 C 49.200 415.535,48.448 415.765,46.900 415.707 C 46.625 415.697,46.400 416.029,46.400 416.444 C 46.400 417.059,46.102 417.200,44.803 417.200 C 43.640 417.200,43.071 417.417,42.707 418.000 C 42.072 419.018,37.200 419.218,37.200 418.227 C 37.200 417.912,36.795 417.529,36.300 417.377 C 35.152 417.024,34.000 415.824,34.000 414.979 C 34.000 414.619,33.640 414.231,33.200 414.116 C 32.522 413.939,32.392 413.547,32.350 411.553 C 32.323 410.259,32.255 409.020,32.200 408.800 C 32.145 408.580,32.078 408.130,32.050 407.800 C 32.023 407.470,31.775 407.245,31.500 407.300 C 31.129 407.374,30.971 406.233,30.887 402.868 C 30.810 399.824,30.909 398.420,31.187 398.592 C 31.414 398.732,31.600 398.567,31.600 398.224 C 31.600 397.881,31.780 397.600,32.000 397.600 C 32.247 397.600,32.400 395.525,32.400 392.176 C 32.400 388.656,32.541 386.840,32.801 387.000 C 33.488 387.425,34.000 385.280,34.000 381.974 C 34.000 379.067,34.067 378.800,34.800 378.800 C 35.533 378.800,35.600 378.533,35.600 375.627 C 35.600 372.816,35.690 372.425,36.392 372.203 C 36.827 372.064,37.166 371.827,37.145 371.676 C 36.778 369.102,37.288 365.751,38.100 365.395 C 38.894 365.046,39.014 364.665,39.117 362.142 C 39.217 359.696,39.346 359.255,40.017 359.080 C 40.684 358.905,40.800 358.522,40.800 356.484 C 40.800 354.430,40.913 354.064,41.600 353.884 C 42.277 353.707,42.400 353.338,42.400 351.484 C 42.400 349.619,42.521 349.262,43.211 349.081 C 43.658 348.964,43.996 348.718,43.964 348.534 C 43.599 346.458,44.068 344.000,44.830 344.000 C 45.562 344.000,45.652 343.777,45.594 342.100 C 45.492 339.134,45.551 338.806,46.147 339.035 C 46.739 339.262,47.198 338.089,47.176 336.400 L 47.164 335.400 46.682 336.400 C 46.417 336.950,45.962 337.449,45.670 337.510 C 45.379 337.570,45.243 337.454,45.368 337.252 C 45.493 337.049,45.326 336.781,44.998 336.654 C 44.611 336.506,44.398 336.668,44.394 337.113 C 44.389 337.662,44.317 337.688,44.037 337.246 C 43.758 336.806,43.588 336.875,43.208 337.586 C 42.826 338.298,42.458 338.448,41.390 338.323 C 40.338 338.200,40.008 338.328,39.854 338.916 C 39.706 339.481,39.329 339.648,38.329 339.593 C 36.359 339.483,35.928 339.560,36.183 339.972 C 36.309 340.177,36.230 340.458,36.007 340.596 C 35.783 340.734,35.600 341.634,35.600 342.597 C 35.600 343.989,35.438 344.397,34.808 344.597 C 34.373 344.736,34.034 344.973,34.055 345.124 C 34.334 347.081,33.916 349.129,33.200 349.316 C 32.510 349.496,32.400 349.862,32.400 351.963 C 32.400 354.133,32.312 354.400,31.600 354.400 C 30.889 354.400,30.800 354.667,30.800 356.800 C 30.800 358.914,30.707 359.200,30.019 359.200 C 29.341 359.200,29.223 359.528,29.119 361.700 C 29.028 363.603,28.857 364.200,28.400 364.200 C 27.943 364.200,27.772 364.797,27.681 366.700 C 27.577 368.872,27.459 369.200,26.781 369.200 C 26.071 369.200,26.000 369.493,26.000 372.400 C 26.000 374.160,25.833 375.600,25.629 375.600 C 24.549 375.600,24.000 376.948,24.000 379.602 C 24.000 381.985,23.896 382.379,23.208 382.597 C 22.773 382.736,22.434 382.973,22.455 383.124 C 22.816 385.658,22.317 389.200,21.600 389.200 C 20.851 389.200,20.800 389.467,20.800 393.353 C 20.800 397.142,20.731 397.525,20.016 397.712 C 18.786 398.033,18.744 431.944,19.973 433.173 C 20.492 433.692,20.794 434.602,20.858 435.837 C 20.920 437.022,21.218 437.958,21.668 438.378 C 22.297 438.964,22.676 440.022,22.770 441.453 C 22.787 441.703,23.160 442.001,23.600 442.116 C 24.040 442.231,24.400 442.612,24.400 442.963 C 24.400 443.333,24.735 443.600,25.200 443.600 C 25.733 443.600,26.000 443.867,26.000 444.400 C 26.000 444.933,26.267 445.200,26.800 445.200 C 27.333 445.200,27.600 445.467,27.600 446.000 C 27.600 446.524,27.867 446.800,28.372 446.800 C 28.868 446.800,29.190 447.122,29.272 447.700 C 29.342 448.195,29.625 448.623,29.900 448.650 C 30.175 448.678,30.838 448.723,31.373 448.750 C 31.918 448.778,32.444 449.109,32.569 449.502 C 32.741 450.043,33.320 450.233,35.092 450.330 C 36.676 450.417,37.604 450.682,38.069 451.181 C 39.130 452.321,47.228 452.372,48.355 451.245 C 48.999 450.601,49.788 450.433,52.602 450.341 C 54.503 450.280,56.148 450.085,56.257 449.908 C 56.366 449.731,56.653 449.709,56.896 449.859 C 57.172 450.030,57.248 449.901,57.099 449.514 C 56.908 449.015,57.327 448.844,59.275 448.623 C 61.193 448.406,61.729 448.191,61.891 447.575 C 62.048 446.972,62.447 446.800,63.684 446.800 C 64.938 446.800,65.319 446.631,65.484 446.000 C 65.650 445.365,66.030 445.200,67.321 445.200 C 68.405 445.200,69.237 444.929,69.812 444.389 C 70.287 443.943,71.243 443.538,71.937 443.489 C 73.088 443.408,73.380 443.142,73.247 442.300 C 73.221 442.135,73.667 442.000,74.237 442.000 C 74.938 442.000,75.343 441.741,75.484 441.200 C 75.671 440.487,76.994 440.115,78.500 440.353 C 78.665 440.379,78.800 440.042,78.800 439.605 C 78.800 438.986,79.156 438.753,80.400 438.554 C 81.365 438.399,82.000 438.080,82.000 437.749 C 82.000 437.447,82.334 437.200,82.742 437.200 C 83.149 437.200,83.969 436.750,84.562 436.200 C 85.156 435.650,85.890 435.200,86.194 435.200 C 86.497 435.200,86.860 434.840,87.000 434.400 C 87.223 433.698,88.360 433.341,89.700 433.553 C 89.865 433.579,89.979 433.465,89.953 433.300 C 89.806 432.374,90.108 432.000,91.000 432.000 C 91.733 432.000,92.000 431.787,92.000 431.200 C 92.000 430.675,92.267 430.400,92.776 430.400 C 93.203 430.400,93.659 430.228,93.789 430.017 C 93.919 429.807,94.292 429.737,94.617 429.862 C 95.037 430.023,95.137 429.901,94.962 429.445 C 94.723 428.824,95.131 428.618,96.300 428.770 C 96.741 428.827,96.965 428.336,96.861 427.540 C 96.842 427.397,97.271 427.169,97.813 427.032 C 98.356 426.896,98.800 426.539,98.800 426.239 C 98.800 425.732,100.172 425.043,100.934 425.168 C 101.118 425.198,101.364 424.858,101.481 424.411 C 101.604 423.941,102.026 423.600,102.484 423.600 C 102.938 423.600,103.364 423.260,103.484 422.800 C 103.600 422.357,104.030 422.000,104.447 422.000 C 104.933 422.000,105.200 421.717,105.200 421.200 C 105.200 420.472,106.236 420.121,107.700 420.353 C 107.989 420.398,108.157 419.758,108.037 419.070 C 108.006 418.889,108.159 418.851,108.377 418.986 C 108.596 419.121,109.343 418.688,110.038 418.024 C 110.733 417.359,111.459 416.913,111.651 417.032 C 111.843 417.150,112.000 416.860,112.000 416.386 C 112.000 415.862,112.313 415.443,112.800 415.316 C 113.240 415.201,113.600 414.879,113.600 414.600 C 113.600 414.321,113.960 413.999,114.400 413.884 C 114.879 413.759,115.200 413.338,115.200 412.837 C 115.200 412.188,115.450 412.000,116.312 412.000 C 116.965 412.000,117.661 411.670,118.000 411.200 C 118.317 410.760,118.897 410.400,119.288 410.400 C 119.680 410.400,120.000 410.126,120.000 409.791 C 120.000 409.457,120.450 408.978,121.000 408.727 C 121.550 408.477,122.000 408.051,122.000 407.782 C 122.000 407.513,122.360 407.199,122.800 407.084 C 123.240 406.969,123.600 406.609,123.600 406.284 C 123.600 405.959,123.960 405.599,124.400 405.484 C 124.840 405.369,125.200 405.009,125.200 404.684 C 125.200 404.359,125.560 403.999,126.000 403.884 C 126.440 403.769,126.800 403.388,126.800 403.037 C 126.800 402.687,127.070 402.378,127.400 402.350 C 127.730 402.322,128.152 402.278,128.338 402.250 C 128.525 402.223,129.496 401.357,130.498 400.326 C 131.500 399.296,132.427 398.531,132.560 398.626 C 132.692 398.722,132.712 398.682,132.603 398.537 C 132.241 398.051,133.288 397.200,134.249 397.200 C 134.848 397.200,135.200 396.967,135.200 396.569 C 135.200 395.859,137.307 393.600,137.969 393.600 C 138.206 393.600,138.400 393.221,138.400 392.757 C 138.400 392.245,138.597 391.990,138.902 392.107 C 139.530 392.348,140.316 391.549,140.097 390.891 C 140.001 390.603,140.293 390.400,140.804 390.400 C 141.324 390.400,141.755 390.093,141.874 389.637 C 141.984 389.217,142.417 388.784,142.837 388.674 C 143.257 388.565,143.600 388.188,143.600 387.837 C 143.600 387.467,143.935 387.200,144.400 387.200 C 144.933 387.200,145.200 386.933,145.200 386.400 C 145.200 385.867,145.467 385.600,146.000 385.600 C 146.533 385.600,146.800 385.333,146.800 384.800 C 146.800 384.350,147.067 384.000,147.410 384.000 C 147.745 384.000,148.191 383.550,148.400 383.000 C 148.633 382.388,149.094 382.000,149.590 382.000 C 150.036 382.000,150.400 381.751,150.400 381.447 C 150.400 381.142,150.783 380.793,151.252 380.671 C 151.829 380.519,152.025 380.243,151.860 379.811 C 151.692 379.375,151.929 379.055,152.608 378.797 C 153.153 378.590,153.600 378.166,153.600 377.857 C 153.600 377.547,153.960 377.199,154.400 377.084 C 154.840 376.969,155.200 376.588,155.200 376.237 C 155.200 375.867,155.535 375.600,156.000 375.600 C 156.533 375.600,156.800 375.333,156.800 374.800 C 156.800 374.267,157.067 374.000,157.600 374.000 C 158.133 374.000,158.400 373.733,158.400 373.200 C 158.400 372.750,158.667 372.400,159.010 372.400 C 159.345 372.400,159.794 371.942,160.007 371.382 C 160.253 370.734,160.650 370.407,161.097 370.482 C 161.568 370.561,161.842 370.303,161.928 369.700 C 161.998 369.205,162.313 368.800,162.628 368.800 C 162.943 368.800,163.200 368.642,163.200 368.448 C 163.200 367.806,167.096 364.000,167.754 364.000 C 168.129 364.000,168.400 363.671,168.400 363.214 C 168.400 362.782,168.760 362.235,169.200 362.000 C 169.640 361.765,170.000 361.397,170.000 361.183 C 170.000 360.969,171.170 359.606,172.600 358.155 C 174.030 356.704,175.200 355.175,175.200 354.758 C 175.200 354.267,175.481 354.000,176.000 354.000 C 176.533 354.000,176.800 353.733,176.800 353.200 C 176.800 352.667,177.067 352.400,177.600 352.400 C 178.133 352.400,178.400 352.133,178.400 351.600 C 178.400 351.135,178.667 350.800,179.037 350.800 C 179.388 350.800,179.769 350.440,179.884 350.000 C 179.999 349.560,180.359 349.200,180.684 349.200 C 181.009 349.200,181.370 348.838,181.485 348.396 C 181.601 347.953,182.102 347.489,182.598 347.365 C 183.112 347.236,183.479 346.854,183.450 346.479 C 183.423 346.116,183.670 345.815,184.000 345.810 C 184.330 345.804,184.658 345.395,184.728 344.900 C 184.798 344.405,185.107 344.000,185.414 344.000 C 185.721 344.000,186.181 343.595,186.437 343.100 C 187.076 341.862,189.472 339.605,189.799 339.933 C 189.946 340.080,190.030 340.020,189.986 339.800 C 189.723 338.498,190.055 337.600,190.800 337.600 C 191.345 337.600,191.600 337.333,191.600 336.763 C 191.600 336.262,191.921 335.841,192.400 335.716 C 192.840 335.601,193.200 335.258,193.200 334.953 C 193.200 334.464,193.668 334.236,194.460 334.339 C 194.603 334.358,194.828 333.943,194.960 333.416 C 195.092 332.889,195.515 332.398,195.900 332.324 C 196.285 332.250,196.599 331.833,196.599 331.395 C 196.600 330.958,196.825 330.645,197.100 330.700 C 197.375 330.755,197.600 330.607,197.600 330.371 C 197.600 330.136,197.870 329.673,198.200 329.343 C 198.530 329.013,198.800 328.880,198.800 329.048 C 198.800 329.216,199.064 329.004,199.387 328.576 C 199.710 328.149,199.980 327.395,199.987 326.900 C 199.996 326.282,200.242 326.000,200.772 326.000 C 201.268 326.000,201.590 325.678,201.672 325.100 C 201.753 324.530,202.057 324.220,202.500 324.256 C 202.987 324.294,203.200 324.020,203.200 323.356 C 203.200 322.748,203.432 322.400,203.837 322.400 C 204.188 322.400,204.566 322.050,204.678 321.622 C 204.790 321.195,205.268 320.790,205.741 320.722 C 206.243 320.651,206.600 320.311,206.600 319.904 C 206.600 319.522,206.750 319.252,206.932 319.304 C 207.346 319.423,208.367 317.628,208.386 316.747 C 208.394 316.387,208.760 315.999,209.200 315.884 C 209.640 315.769,210.000 315.400,210.000 315.064 C 210.000 314.729,210.360 314.340,210.800 314.200 C 211.240 314.060,211.600 313.598,211.600 313.173 C 211.600 312.747,211.874 312.400,212.210 312.400 C 212.545 312.400,212.985 311.965,213.188 311.432 C 213.390 310.900,213.852 310.299,214.214 310.096 C 214.576 309.894,214.856 309.564,214.836 309.364 C 214.816 309.164,214.980 308.978,215.200 308.950 C 215.420 308.923,215.780 308.878,216.000 308.850 C 216.220 308.822,216.379 308.665,216.353 308.500 C 216.125 307.061,216.474 306.000,217.173 306.000 C 217.598 306.000,218.057 305.649,218.194 305.220 C 218.330 304.792,218.792 304.330,219.220 304.194 C 219.649 304.057,220.000 303.683,220.000 303.360 C 220.000 303.038,220.263 302.674,220.585 302.550 C 220.906 302.427,221.276 301.992,221.405 301.584 C 221.535 301.175,221.988 300.731,222.412 300.596 C 222.837 300.461,223.166 300.227,223.145 300.076 C 222.933 298.593,223.276 297.600,224.000 297.600 C 224.517 297.600,224.800 297.333,224.800 296.847 C 224.800 296.430,225.157 296.000,225.600 295.884 C 226.079 295.759,226.400 295.338,226.400 294.837 C 226.400 294.377,226.535 294.021,226.700 294.047 C 227.604 294.190,227.937 293.863,228.174 292.600 C 228.339 291.716,228.664 291.200,229.056 291.200 C 229.396 291.200,229.767 290.846,229.881 290.413 C 229.994 289.981,230.427 289.518,230.843 289.386 C 231.259 289.254,231.600 288.798,231.600 288.373 C 231.600 287.851,231.877 287.600,232.453 287.600 C 233.216 287.600,233.283 287.433,233.092 286.006 C 232.886 284.476,232.948 284.367,234.624 283.306 C 235.585 282.698,236.377 281.975,236.385 281.700 C 236.393 281.425,236.760 281.200,237.200 281.200 C 237.787 281.200,238.000 280.933,238.000 280.200 C 238.000 279.469,238.214 279.200,238.795 279.200 C 239.414 279.200,239.647 278.844,239.846 277.600 C 239.993 276.682,240.325 276.000,240.624 276.000 C 240.911 276.000,241.260 275.640,241.400 275.200 C 241.540 274.760,242.002 274.400,242.427 274.400 C 242.990 274.400,243.200 274.121,243.200 273.376 C 243.200 272.813,243.335 272.435,243.500 272.534 C 243.784 272.706,245.113 271.543,244.900 271.310 C 244.447 270.812,244.924 269.600,245.572 269.600 C 246.068 269.600,246.390 269.278,246.472 268.700 C 246.542 268.205,246.868 267.800,247.195 267.800 C 247.522 267.800,247.858 267.442,247.942 267.004 C 248.027 266.567,248.434 265.971,248.848 265.682 C 249.294 265.369,249.600 264.676,249.600 263.977 C 249.600 263.049,249.777 262.800,250.437 262.800 C 250.938 262.800,251.359 262.479,251.484 262.000 C 251.599 261.560,251.930 261.200,252.220 261.200 C 252.509 261.200,252.853 260.864,252.983 260.453 C 253.114 260.042,253.576 259.384,254.010 258.991 C 254.445 258.598,254.800 257.875,254.800 257.385 C 254.800 256.830,255.102 256.414,255.600 256.284 C 256.079 256.159,256.400 255.738,256.400 255.237 C 256.400 254.667,256.655 254.400,257.200 254.400 C 257.867 254.400,258.000 254.133,258.000 252.800 C 258.000 251.467,258.133 251.200,258.800 251.200 C 259.324 251.200,259.600 250.933,259.600 250.428 C 259.600 249.932,259.922 249.610,260.500 249.528 C 260.995 249.458,261.400 249.160,261.400 248.868 C 261.400 248.575,261.714 248.106,262.099 247.825 C 262.483 247.544,262.909 246.754,263.046 246.069 C 263.190 245.349,263.613 244.723,264.048 244.585 C 264.461 244.454,264.800 243.998,264.800 243.573 C 264.800 243.148,265.051 242.800,265.357 242.800 C 266.002 242.800,266.400 241.948,266.400 240.567 C 266.400 239.867,266.621 239.600,267.200 239.600 C 267.717 239.600,268.000 239.333,268.000 238.847 C 268.000 238.430,268.357 238.000,268.800 237.884 C 269.279 237.759,269.600 237.338,269.600 236.837 C 269.600 236.377,269.735 236.021,269.900 236.047 C 270.851 236.197,271.165 235.844,271.276 234.500 C 271.375 233.308,271.564 233.000,272.200 233.000 C 272.640 233.000,273.005 232.730,273.011 232.400 C 273.027 231.474,273.607 230.757,274.096 231.059 C 274.377 231.233,274.446 231.096,274.285 230.678 C 274.148 230.319,274.207 229.919,274.417 229.789 C 274.628 229.659,274.800 229.224,274.800 228.823 C 274.800 228.422,275.160 227.999,275.600 227.884 C 276.040 227.769,276.400 227.388,276.400 227.037 C 276.400 226.687,276.668 226.400,276.995 226.400 C 277.380 226.400,277.681 225.835,277.846 224.800 C 278.039 223.594,278.287 223.200,278.851 223.200 C 279.383 223.200,279.600 222.911,279.600 222.200 C 279.600 221.650,279.735 221.221,279.900 221.247 C 280.933 221.411,281.200 221.073,281.200 219.600 C 281.200 218.094,280.621 217.512,279.870 218.263 M54.584 315.227 C 54.439 315.461,54.416 315.749,54.533 315.867 C 54.820 316.153,55.600 315.648,55.600 315.176 C 55.600 314.665,54.909 314.699,54.584 315.227 M52.930 319.463 C 53.075 319.608,52.993 319.968,52.748 320.263 C 52.408 320.672,52.446 320.800,52.908 320.800 C 53.242 320.800,53.611 320.548,53.730 320.239 C 53.965 319.626,53.693 319.200,53.067 319.200 C 52.847 319.200,52.785 319.318,52.930 319.463 M52.054 322.174 C 52.025 322.600,51.619 323.354,51.154 323.849 L 50.308 324.749 51.188 324.519 C 52.216 324.250,52.532 323.620,52.286 322.329 C 52.147 321.600,52.097 321.567,52.054 322.174 M42.802 323.200 C 42.433 324.404,42.452 325.329,42.833 324.685 C 43.066 324.292,43.168 323.752,43.060 323.485 C 42.952 323.218,42.836 323.090,42.802 323.200 M49.800 328.000 C 49.664 328.220,49.698 328.413,49.876 328.428 C 50.054 328.444,49.840 328.620,49.400 328.821 C 48.669 329.155,48.683 329.178,49.564 329.093 C 50.131 329.038,50.569 328.712,50.628 328.300 C 50.737 327.543,50.202 327.350,49.800 328.000 M39.700 331.083 C 39.137 331.290,39.006 332.800,39.551 332.800 C 39.744 332.800,40.132 332.522,40.414 332.183 C 40.979 331.502,40.513 330.785,39.700 331.083 M48.460 331.724 C 48.427 332.122,48.219 332.335,47.997 332.198 C 47.776 332.061,47.492 332.276,47.368 332.675 C 47.243 333.074,46.978 333.707,46.779 334.081 C 46.553 334.506,46.568 334.856,46.818 335.011 C 47.039 335.148,47.170 335.021,47.110 334.730 C 47.049 334.438,47.208 334.239,47.462 334.287 C 48.233 334.433,48.868 333.315,48.689 332.124 C 48.596 331.506,48.493 331.326,48.460 331.724 M38.345 336.358 C 38.806 336.649,38.806 336.737,38.345 336.920 C 38.045 337.039,38.003 337.151,38.251 337.168 C 38.499 337.186,38.926 336.930,39.200 336.600 C 39.619 336.095,39.547 336.001,38.749 336.006 C 38.061 336.011,37.950 336.107,38.345 336.358 M37.632 338.300 C 37.612 338.847,37.835 339.200,38.200 339.200 C 38.530 339.200,38.800 338.919,38.800 338.576 C 38.800 338.233,38.635 338.055,38.434 338.179 C 38.233 338.303,37.977 338.179,37.866 337.902 C 37.754 337.626,37.649 337.805,37.632 338.300 " stroke="none" fill="#046fb7" fill-rule="evenodd"></path><path id="path3" d="M149.034 94.306 C 149.273 94.468,149.692 94.960,149.964 95.400 C 150.380 96.070,150.423 96.081,150.230 95.467 C 150.104 95.064,150.000 94.569,150.000 94.367 C 150.000 94.165,149.685 94.003,149.300 94.006 C 148.874 94.010,148.770 94.127,149.034 94.306 M72.000 116.589 C 72.000 117.365,72.162 118.000,72.360 118.000 C 72.558 118.000,72.936 118.945,73.200 120.100 C 73.464 121.255,74.022 122.932,74.440 123.826 C 74.858 124.721,75.200 125.756,75.200 126.128 C 75.200 126.499,75.560 127.475,76.000 128.296 C 76.440 129.116,76.800 130.106,76.800 130.496 C 76.800 130.885,77.160 131.875,77.600 132.696 C 78.040 133.516,78.400 134.506,78.400 134.896 C 78.400 135.285,78.760 136.275,79.200 137.096 C 79.640 137.916,80.000 138.930,80.000 139.347 C 80.000 139.764,80.341 140.667,80.757 141.353 C 81.173 142.039,81.646 143.230,81.808 144.000 C 81.970 144.770,82.349 145.755,82.651 146.189 C 82.953 146.623,83.206 147.253,83.213 147.589 C 83.219 147.925,83.668 149.100,84.209 150.200 C 84.750 151.300,85.194 152.583,85.196 153.051 C 85.198 153.519,85.458 154.117,85.774 154.379 C 86.090 154.641,86.474 155.428,86.628 156.128 C 86.781 156.827,87.243 158.027,87.653 158.794 C 88.064 159.561,88.400 160.522,88.400 160.931 C 88.400 161.340,88.760 162.131,89.200 162.691 C 89.640 163.250,90.000 164.034,90.000 164.433 C 90.000 164.831,90.450 166.004,91.000 167.038 C 91.550 168.073,92.000 169.230,92.000 169.611 C 92.000 169.991,92.270 170.526,92.600 170.800 C 92.930 171.074,93.200 171.626,93.200 172.028 C 93.200 172.429,93.650 173.604,94.200 174.638 C 94.750 175.673,95.200 176.763,95.200 177.061 C 95.200 177.359,95.560 178.275,96.000 179.096 C 96.440 179.916,96.800 180.832,96.800 181.131 C 96.800 181.430,97.160 182.131,97.600 182.691 C 98.040 183.250,98.400 183.981,98.400 184.314 C 98.400 185.292,100.450 189.200,101.154 189.564 C 102.478 190.248,161.407 190.917,164.457 190.283 C 165.751 190.014,165.943 189.812,166.168 188.490 C 166.307 187.670,166.604 186.010,166.827 184.800 C 167.408 181.641,167.975 177.852,168.382 174.400 C 168.577 172.750,168.948 170.500,169.207 169.400 C 169.465 168.300,169.757 166.230,169.854 164.800 C 169.951 163.370,170.192 161.840,170.388 161.400 C 170.884 160.290,171.206 158.315,171.465 154.800 C 171.587 153.150,171.877 151.565,172.110 151.279 C 172.750 150.491,173.402 146.662,174.202 139.000 C 174.340 137.680,174.611 136.240,174.805 135.800 C 175.163 134.989,175.573 132.190,175.719 129.551 C 175.767 128.696,175.979 128.170,176.236 128.269 C 176.476 128.361,176.893 128.170,177.163 127.844 C 178.021 126.810,187.210 126.951,187.485 128.003 C 187.772 129.099,188.486 129.012,188.328 127.900 C 188.204 127.030,188.036 126.996,183.344 126.888 C 178.898 126.786,178.470 126.709,178.281 125.988 C 178.090 125.258,177.714 125.200,173.188 125.200 C 168.987 125.200,168.369 125.281,168.779 125.774 C 169.548 126.702,168.619 128.000,167.186 128.000 C 166.534 128.000,166.000 127.817,166.000 127.593 C 166.000 127.370,165.158 126.380,164.128 125.393 L 162.257 123.600 158.728 123.600 C 155.467 123.600,155.200 123.540,155.200 122.800 C 155.200 122.032,154.933 122.000,148.600 122.000 C 142.267 122.000,142.000 121.968,142.000 121.200 C 142.000 120.428,141.733 120.400,134.400 120.400 C 127.067 120.400,126.800 120.372,126.800 119.600 C 126.800 118.824,126.533 118.800,117.800 118.800 C 109.067 118.800,108.800 118.776,108.800 118.000 C 108.800 117.217,108.533 117.200,96.495 117.200 L 84.190 117.200 83.795 116.300 C 83.415 115.435,83.176 115.396,77.700 115.289 L 72.000 115.178 72.000 116.589 M176.994 127.610 C 176.873 127.805,176.495 127.858,176.154 127.727 C 175.669 127.541,175.646 127.419,176.047 127.171 C 176.654 126.796,177.309 127.100,176.994 127.610 M196.800 129.078 C 197.130 129.196,197.625 129.576,197.900 129.922 C 198.340 130.477,198.400 130.447,198.400 129.676 C 198.400 128.979,198.175 128.806,197.300 128.832 C 196.692 128.849,196.468 128.959,196.800 129.078 M206.000 130.684 C 206.330 130.805,206.915 131.179,207.300 131.514 C 207.928 132.061,208.000 132.060,208.000 131.505 C 208.000 130.845,207.162 130.380,206.067 130.432 C 205.520 130.457,205.508 130.503,206.000 130.684 M214.909 132.556 C 215.520 132.827,215.895 133.172,215.743 133.324 C 215.591 133.476,215.677 133.600,215.933 133.600 C 216.190 133.600,216.400 133.456,216.400 133.280 C 216.400 132.674,215.438 132.000,214.620 132.032 C 213.932 132.060,213.978 132.144,214.909 132.556 M361.675 181.848 C 362.047 181.958,362.442 182.353,362.552 182.725 C 362.699 183.214,362.732 183.181,362.672 182.605 C 362.625 182.138,362.262 181.775,361.795 181.728 C 361.219 181.668,361.186 181.701,361.675 181.848 M303.458 278.797 C 302.735 279.528,302.737 279.542,303.558 279.327 C 304.021 279.206,304.400 278.858,304.400 278.553 C 304.400 277.868,304.370 277.875,303.458 278.797 M189.064 340.034 C 188.401 340.808,188.399 340.859,189.037 340.734 C 189.415 340.660,189.770 340.285,189.827 339.900 C 189.956 339.018,189.929 339.023,189.064 340.034 M187.255 341.733 C 186.921 342.136,186.954 342.267,187.389 342.267 C 187.706 342.267,188.058 342.027,188.170 341.733 C 188.283 341.440,188.223 341.200,188.036 341.200 C 187.850 341.200,187.499 341.440,187.255 341.733 M173.954 356.723 C 172.641 358.074,172.230 358.800,172.776 358.800 C 173.009 358.800,173.200 358.526,173.200 358.190 C 173.200 357.855,173.650 357.409,174.200 357.200 C 174.750 356.991,175.200 356.545,175.200 356.210 C 175.200 355.438,175.203 355.436,173.954 356.723 M170.571 360.191 C 169.894 360.703,169.883 360.776,170.476 360.787 C 170.848 360.794,171.271 360.608,171.416 360.373 C 171.852 359.668,171.393 359.570,170.571 360.191 M71.700 395.612 C 71.205 395.811,70.800 396.160,70.800 396.387 C 70.800 397.040,71.412 396.871,72.200 396.000 C 73.003 395.112,72.983 395.097,71.700 395.612 M132.627 397.970 C 131.964 398.703,131.966 398.734,132.665 398.632 C 133.069 398.573,133.458 398.226,133.529 397.862 C 133.698 397.001,133.481 397.026,132.627 397.970 M69.078 398.423 C 68.902 399.098,68.965 399.161,69.431 398.774 C 70.068 398.246,70.186 397.600,69.647 397.600 C 69.452 397.600,69.196 397.970,69.078 398.423 M131.043 399.833 C 130.893 400.223,130.982 400.406,131.275 400.308 C 131.873 400.109,132.202 399.200,131.676 399.200 C 131.461 399.200,131.176 399.485,131.043 399.833 M65.867 401.067 C 65.484 401.449,65.538 402.000,65.957 402.000 C 66.154 402.000,66.418 401.730,66.545 401.400 C 66.779 400.790,66.353 400.581,65.867 401.067 M56.741 409.068 C 56.379 409.164,55.983 409.638,55.861 410.121 C 55.673 410.866,55.716 410.909,56.138 410.400 C 56.412 410.070,56.889 409.575,57.198 409.300 C 57.507 409.025,57.679 408.821,57.580 408.846 C 57.481 408.872,57.103 408.972,56.741 409.068 M34.664 416.366 C 35.529 417.377,35.556 417.382,35.427 416.500 C 35.370 416.115,35.015 415.740,34.637 415.666 C 33.999 415.541,34.001 415.592,34.664 416.366 M69.600 444.600 C 69.192 445.091,69.220 445.200,69.751 445.200 C 70.108 445.200,70.400 444.930,70.400 444.600 C 70.400 444.270,70.332 444.000,70.249 444.000 C 70.166 444.000,69.874 444.270,69.600 444.600 M61.916 447.479 C 61.768 448.043,61.297 448.397,60.546 448.509 C 59.418 448.677,59.417 448.681,60.451 448.740 C 61.584 448.805,62.580 447.939,62.308 447.124 C 62.214 446.843,62.041 447.001,61.916 447.479 " stroke="none" fill="#12691e" fill-rule="evenodd"></path><path id="path4" d="M111.900 190.707 L 101.600 190.813 101.600 191.953 C 101.600 192.579,101.960 193.550,102.400 194.109 C 102.840 194.669,103.200 195.475,103.200 195.902 C 103.200 196.329,103.541 197.071,103.958 197.551 C 104.375 198.032,104.829 199.031,104.968 199.772 C 105.107 200.513,105.482 201.336,105.800 201.600 C 106.118 201.864,106.492 202.686,106.631 203.426 C 106.770 204.166,107.135 204.980,107.442 205.235 C 107.749 205.490,108.000 205.884,108.000 206.110 C 108.000 206.585,109.638 210.302,110.806 212.479 C 111.243 213.293,111.600 214.210,111.600 214.518 C 111.600 214.826,111.960 215.493,112.400 216.000 C 112.840 216.507,113.200 217.317,113.200 217.800 C 113.200 218.283,113.560 219.093,114.000 219.600 C 114.440 220.107,114.800 220.738,114.800 221.001 C 114.800 221.265,115.607 223.082,116.594 225.040 C 117.581 226.998,118.391 228.803,118.394 229.051 C 118.397 229.299,118.665 229.722,118.989 229.991 C 119.314 230.260,119.692 231.086,119.831 231.826 C 119.970 232.566,120.323 233.370,120.616 233.613 C 120.909 233.856,121.271 234.628,121.421 235.328 C 121.571 236.027,122.032 236.922,122.447 237.316 C 122.861 237.709,123.197 238.249,123.193 238.516 C 123.190 238.782,123.893 240.440,124.756 242.200 C 125.619 243.960,126.520 245.850,126.760 246.400 C 126.999 246.950,127.376 247.670,127.597 248.000 C 127.819 248.330,128.180 249.050,128.399 249.600 C 128.619 250.150,128.959 250.870,129.156 251.200 C 129.353 251.530,129.712 252.250,129.954 252.800 C 130.196 253.350,130.568 254.070,130.781 254.400 C 130.994 254.730,131.753 256.260,132.467 257.800 C 133.181 259.340,133.999 260.838,134.283 261.129 C 134.567 261.419,134.800 261.980,134.800 262.375 C 134.800 262.769,135.160 263.550,135.600 264.109 C 136.040 264.669,136.400 265.389,136.400 265.709 C 136.400 266.030,136.760 266.750,137.200 267.309 C 137.640 267.869,138.000 268.589,138.000 268.909 C 138.000 269.230,138.349 269.936,138.775 270.478 C 139.202 271.020,139.672 271.946,139.820 272.535 C 139.968 273.125,140.251 273.708,140.450 273.831 C 140.649 273.954,141.076 274.627,141.398 275.327 C 141.720 276.027,142.156 276.870,142.367 277.200 C 142.577 277.530,142.998 278.340,143.301 279.000 C 143.605 279.660,144.047 280.560,144.283 281.000 C 144.520 281.440,144.917 282.250,145.165 282.800 C 145.413 283.350,146.053 284.520,146.587 285.400 C 147.122 286.280,147.748 287.450,147.979 288.000 C 148.210 288.550,148.569 289.270,148.777 289.600 C 150.338 292.079,151.924 296.004,151.707 296.846 C 151.356 298.210,152.358 297.328,154.189 294.663 C 154.968 293.528,155.917 292.150,156.296 291.600 C 156.676 291.050,157.214 290.456,157.493 290.280 C 157.772 290.104,158.000 289.708,158.000 289.401 C 158.000 289.093,158.450 288.356,159.000 287.762 C 159.550 287.169,160.000 286.483,160.000 286.238 C 160.000 285.993,160.360 285.568,160.800 285.293 C 161.240 285.018,161.600 284.553,161.600 284.259 C 161.600 283.965,161.960 283.398,162.400 283.000 C 162.840 282.602,163.200 282.100,163.200 281.884 C 163.200 281.668,163.605 281.070,164.100 280.556 C 165.849 278.737,166.436 277.957,166.822 276.943 C 167.076 276.274,167.417 275.998,167.806 276.147 C 168.142 276.276,168.400 276.151,168.400 275.860 C 168.400 275.108,170.274 273.600,171.207 273.600 C 171.647 273.600,172.316 273.240,172.693 272.800 C 173.070 272.360,173.871 272.000,174.475 272.000 C 175.162 272.000,175.732 271.701,176.000 271.200 C 176.280 270.677,176.838 270.400,177.611 270.400 C 178.360 270.400,178.976 270.107,179.293 269.600 C 179.585 269.133,180.226 268.800,180.834 268.800 C 181.407 268.800,182.202 268.440,182.600 268.000 C 182.998 267.560,183.718 267.200,184.200 267.200 C 184.682 267.200,185.402 266.840,185.800 266.400 C 186.198 265.960,186.918 265.600,187.400 265.600 C 187.882 265.600,188.602 265.240,189.000 264.800 C 189.398 264.360,190.215 264.000,190.816 264.000 C 191.539 264.000,192.129 263.662,192.563 263.000 C 193.016 262.308,193.581 262.000,194.395 262.000 C 195.162 262.000,195.721 261.722,196.000 261.200 C 196.279 260.679,196.838 260.400,197.600 260.400 C 198.362 260.400,198.921 260.121,199.200 259.600 C 199.472 259.091,200.038 258.800,200.752 258.800 C 201.370 258.800,202.202 258.440,202.600 258.000 C 202.998 257.560,203.718 257.200,204.200 257.200 C 204.682 257.200,205.402 256.840,205.800 256.400 C 206.198 255.960,206.918 255.600,207.400 255.600 C 207.882 255.600,208.602 255.240,209.000 254.800 C 209.398 254.360,210.118 254.000,210.600 254.000 C 211.082 254.000,211.802 253.640,212.200 253.200 C 212.598 252.760,213.365 252.400,213.904 252.400 C 214.474 252.400,215.215 251.981,215.671 251.400 C 216.187 250.745,216.857 250.400,217.615 250.400 C 218.362 250.400,218.923 250.117,219.200 249.600 C 219.472 249.091,220.038 248.800,220.752 248.800 C 221.370 248.800,222.202 248.440,222.600 248.000 C 222.998 247.560,223.718 247.200,224.200 247.200 C 224.682 247.200,225.402 246.840,225.800 246.400 C 226.198 245.960,226.918 245.600,227.400 245.600 C 227.882 245.600,228.602 245.240,229.000 244.800 C 229.398 244.360,230.118 244.000,230.600 244.000 C 231.082 244.000,231.802 243.640,232.200 243.200 C 232.598 242.760,233.315 242.400,233.792 242.400 C 234.270 242.400,235.083 241.950,235.600 241.400 C 236.117 240.850,236.960 240.400,237.474 240.400 C 237.987 240.400,238.716 240.040,239.093 239.600 C 239.470 239.160,240.271 238.800,240.875 238.800 C 241.562 238.800,242.132 238.501,242.400 238.000 C 242.672 237.491,243.238 237.200,243.952 237.200 C 244.570 237.200,245.402 236.840,245.800 236.400 C 246.198 235.960,246.918 235.600,247.400 235.600 C 247.882 235.600,248.602 235.240,249.000 234.800 C 249.398 234.360,250.089 234.000,250.536 234.000 C 250.983 234.000,251.767 233.606,252.279 233.126 C 253.577 231.906,276.775 220.436,277.048 220.878 C 277.171 221.077,277.553 221.005,277.897 220.719 C 278.241 220.434,278.585 220.245,278.661 220.300 C 278.738 220.355,279.025 220.397,279.300 220.394 C 279.633 220.390,279.600 220.258,279.200 220.000 C 278.720 219.690,278.790 219.611,279.549 219.606 C 280.344 219.601,280.418 219.503,280.004 219.005 C 279.455 218.344,279.755 218.140,281.600 217.920 C 282.438 217.819,282.620 217.560,282.723 216.320 C 282.809 215.287,283.075 214.767,283.603 214.599 C 284.019 214.467,284.465 214.025,284.595 213.616 C 284.724 213.208,285.094 212.773,285.415 212.650 C 285.737 212.526,286.000 212.139,286.000 211.789 C 286.000 211.439,286.180 211.264,286.400 211.400 C 286.620 211.536,286.800 211.277,286.800 210.824 C 286.800 210.371,286.960 210.000,287.157 210.000 C 287.353 210.000,287.621 209.572,287.752 209.048 C 287.884 208.524,288.353 208.001,288.796 207.885 C 289.319 207.748,289.600 207.340,289.600 206.717 C 289.600 206.191,289.775 205.585,289.988 205.372 C 291.172 204.188,288.637 202.678,284.965 202.380 C 283.004 202.221,280.590 201.815,279.600 201.478 C 278.610 201.141,276.090 200.773,274.000 200.661 C 271.910 200.549,269.412 200.174,268.450 199.828 C 267.422 199.459,265.358 199.194,263.450 199.186 C 261.662 199.178,259.120 198.890,257.800 198.546 C 256.480 198.201,252.520 197.685,249.000 197.398 C 245.480 197.111,241.790 196.686,240.800 196.453 C 239.810 196.220,235.865 195.834,232.034 195.594 C 228.202 195.353,224.747 194.986,224.356 194.776 C 223.768 194.462,217.376 194.219,215.200 194.428 C 213.501 194.592,193.342 193.485,193.000 193.209 C 192.635 192.916,178.589 192.093,167.800 191.734 C 165.380 191.654,159.980 191.416,155.800 191.205 C 147.223 190.774,127.283 190.547,111.900 190.707 M65.813 273.510 C 65.696 273.816,65.600 274.591,65.600 275.233 C 65.600 275.964,65.392 276.400,65.043 276.400 C 64.413 276.400,64.000 277.247,64.000 278.536 C 64.000 279.016,63.652 279.625,63.226 279.891 C 62.777 280.171,62.400 280.925,62.326 281.687 C 62.257 282.409,62.040 282.940,61.845 282.866 C 61.301 282.661,60.813 283.665,60.806 285.004 C 60.802 285.770,60.509 286.389,60.000 286.707 C 59.490 287.026,59.200 287.640,59.200 288.403 C 59.200 289.333,59.022 289.600,58.400 289.600 C 57.638 289.600,57.549 289.799,57.441 291.730 C 57.418 292.131,57.125 292.671,56.790 292.930 C 56.454 293.188,56.169 293.670,56.156 294.000 C 56.113 295.109,55.205 296.851,54.801 296.600 C 54.580 296.464,54.377 296.543,54.350 296.776 C 54.323 297.009,54.255 297.380,54.200 297.600 C 54.145 297.820,54.078 298.720,54.050 299.600 C 54.009 300.917,53.858 301.200,53.200 301.200 C 52.533 301.200,52.400 301.467,52.400 302.800 C 52.400 304.273,52.133 304.611,51.100 304.447 C 50.935 304.421,50.800 305.218,50.800 306.218 C 50.800 307.727,50.681 308.015,50.100 307.918 C 49.547 307.825,49.373 308.135,49.270 309.395 C 49.137 311.030,48.551 312.140,48.000 311.800 C 47.830 311.695,47.698 311.832,47.708 312.104 C 47.808 314.887,47.561 316.000,46.843 316.000 C 46.003 316.000,45.600 316.742,45.600 318.289 C 45.600 318.851,45.307 319.526,44.949 319.788 C 44.590 320.050,44.253 320.700,44.200 321.232 C 44.146 321.764,44.079 322.436,44.051 322.724 C 44.023 323.012,43.820 323.136,43.600 323.000 C 43.380 322.864,43.200 323.134,43.200 323.600 C 43.200 324.066,43.065 324.364,42.900 324.263 C 42.735 324.162,42.565 324.825,42.523 325.737 C 42.472 326.843,42.181 327.610,41.650 328.040 C 41.212 328.395,40.908 329.026,40.975 329.442 C 41.042 329.859,40.989 330.380,40.859 330.600 C 40.728 330.820,40.616 331.270,40.611 331.600 C 40.605 331.930,40.362 332.151,40.070 332.090 C 39.779 332.030,39.655 332.165,39.794 332.390 C 39.933 332.616,39.889 332.800,39.695 332.800 C 39.501 332.800,39.359 333.565,39.378 334.500 C 39.415 336.268,39.023 337.204,38.251 337.194 C 37.979 337.190,38.012 337.053,38.334 336.850 C 38.763 336.577,38.744 336.464,38.234 336.268 C 37.843 336.118,37.600 336.238,37.600 336.580 C 37.600 337.524,38.066 338.406,38.442 338.174 C 38.639 338.052,38.800 338.220,38.800 338.547 C 38.800 338.874,38.485 339.224,38.100 339.324 C 37.684 339.433,37.862 339.526,38.537 339.554 C 39.320 339.586,39.733 339.376,39.862 338.883 C 40.007 338.331,40.357 338.202,41.390 338.323 C 42.458 338.448,42.826 338.298,43.208 337.586 C 43.588 336.875,43.758 336.806,44.037 337.246 C 44.317 337.688,44.389 337.662,44.394 337.113 C 44.398 336.668,44.611 336.506,44.998 336.654 C 45.326 336.781,45.514 337.015,45.415 337.175 C 45.316 337.336,45.490 337.467,45.802 337.467 C 46.478 337.467,47.327 335.326,46.784 334.990 C 46.563 334.853,46.561 334.491,46.779 334.081 C 46.978 333.707,47.243 333.074,47.368 332.675 C 47.492 332.276,47.755 332.049,47.952 332.170 C 48.344 332.412,48.786 331.116,48.795 329.700 C 48.798 329.154,49.045 328.800,49.424 328.800 C 49.767 328.800,49.935 328.619,49.798 328.397 C 49.661 328.176,49.798 327.899,50.103 327.782 C 50.461 327.645,50.636 327.009,50.597 325.984 C 50.557 324.901,50.769 324.190,51.269 323.738 C 51.671 323.374,52.000 322.846,52.000 322.564 C 52.000 322.282,52.209 321.545,52.465 320.926 C 52.720 320.307,52.893 319.643,52.848 319.451 C 52.804 319.259,53.031 319.203,53.354 319.327 C 53.783 319.492,53.935 319.262,53.920 318.476 C 53.880 316.449,54.001 315.999,54.800 315.200 C 55.244 314.756,55.387 314.400,55.120 314.400 C 54.747 314.400,54.747 314.293,55.120 313.920 C 55.384 313.656,55.600 312.846,55.600 312.120 C 55.600 311.114,55.772 310.800,56.322 310.800 C 56.888 310.800,57.065 310.435,57.143 309.110 C 57.236 307.543,57.797 306.628,58.428 307.017 C 58.574 307.108,58.693 306.871,58.692 306.491 C 58.682 303.021,58.814 302.367,59.500 302.482 C 60.070 302.578,60.222 302.254,60.320 300.741 C 60.410 299.358,60.623 298.835,61.154 298.696 C 61.546 298.594,61.897 298.260,61.934 297.955 C 62.243 295.405,62.556 294.400,63.044 294.400 C 63.350 294.400,63.615 294.265,63.633 294.100 C 63.937 291.323,64.284 290.281,64.797 290.598 C 65.019 290.735,65.223 290.657,65.250 290.424 C 65.278 290.191,65.345 289.820,65.400 289.600 C 65.455 289.380,65.523 288.480,65.550 287.600 C 65.585 286.476,65.776 286.000,66.192 286.000 C 66.740 286.000,66.934 285.546,67.308 283.400 C 67.385 282.960,67.675 282.649,67.953 282.710 C 68.232 282.770,68.345 282.635,68.206 282.410 C 68.067 282.184,68.113 282.000,68.310 282.000 C 68.506 282.000,68.676 281.775,68.687 281.500 C 68.699 281.225,68.845 279.146,69.013 276.880 L 69.317 272.761 67.672 272.858 C 66.711 272.914,65.937 273.186,65.813 273.510 " stroke="none" fill="#04b6d3" fill-rule="evenodd"></path></g></svg>