<svg id="Capa_1" data-name="Capa 1" xmlns="http://www.w3.org/2000/svg" viewBox="0 0 17.11 17.09"><defs><style>.cls-1{fill:#002361;}</style></defs><title>Ico-Poker-2</title><g id="Capa_1-2" data-name="Capa 1-2"><path class="cls-1" d="M19.93,9.63a8.52,8.52,0,0,0-8.44-7.21,8.78,8.78,0,0,0-1.35.11A8.52,8.52,0,0,0,3,12.26v0A8.55,8.55,0,0,0,19.93,9.63Zm-1.44,5a8.11,8.11,0,0,1-.57.94h0a8.28,8.28,0,0,1-.71.84.47.47,0,0,0-.1.1l-.44-.32a1.69,1.69,0,0,1,1.36-2l.09,0,.45.32-.1.12Zm-7,4.22a7.46,7.46,0,0,1-1.16-.09L10,18.74a5.07,5.07,0,0,1-.56-.13l.06-.53a1.68,1.68,0,0,1,1.11-.42,1.7,1.7,0,0,1,1,.32,1.54,1.54,0,0,1,.36.36l-.05.53-.47,0Zm1-.72h0a2.09,2.09,0,0,0-.52-.55,1,1,0,0,1-.17-.09,6.5,6.5,0,0,0,4.46-2,2.41,2.41,0,0,0,0,1h0l.51.37a8,8,0,0,1-4.34,1.94l.06-.58Zm4-3.6A6.14,6.14,0,1,1,17.67,11a6.09,6.09,0,0,1-1.17,3.63Zm-11.66.66a7.34,7.34,0,0,1-.53-1c0-.06,0-.11-.07-.17A7.69,7.69,0,0,1,3.86,13h0l.51-.23a2,2,0,0,1,.45.24,1.7,1.7,0,0,1,.56,2l-.51.22Zm-.32-8a7.72,7.72,0,0,1,.59-1,7.58,7.58,0,0,1,.68-.82l.09-.09.44.32A1.71,1.71,0,0,1,5,7.64H4.86l-.45-.23Zm6.55-4.18h.56a6.74,6.74,0,0,1,1,.08,2.34,2.34,0,0,1,.46.09l.45.09-.06.53a1.68,1.68,0,0,1-1.11.42A1.7,1.7,0,0,1,11,3.6Zm7.12,3.68a6.56,6.56,0,0,1,.49.9l.12.27a8.51,8.51,0,0,1,.29.85.88.88,0,0,1,.05.15l-.5.23a2,2,0,0,1-.45-.24,1.7,1.7,0,0,1-.56-2l.5-.22Zm-.33-.5-.54.24-.06.06h0a2.13,2.13,0,0,0-.22.89,6.66,6.66,0,0,0-1.7-1.77,6.79,6.79,0,0,0-2.27-1,2.32,2.32,0,0,0,.87-.54h0l.06-.7a8,8,0,0,1,2.15,1.11A8.15,8.15,0,0,1,17.85,6.24ZM10.23,3.13h.34l-.06.57v.08h0a2.09,2.09,0,0,0,.52.55,1,1,0,0,1,.17.09,6.58,6.58,0,0,0-4.41,2,2.41,2.41,0,0,0,0-1h0L6.22,5A7.87,7.87,0,0,1,10.23,3.13Zm-6,4.68.48.34h.12a2.23,2.23,0,0,0,.88-.25A6.54,6.54,0,0,0,5,12a6.43,6.43,0,0,0,.17.76l-.12-.11a2.33,2.33,0,0,0-.71-.34h0l-.58.26a1.94,1.94,0,0,0-.07-.33,7.8,7.8,0,0,1,.48-4.4Zm.9,7.88.51-.27H5.7a2.08,2.08,0,0,0,.23-.95,6.55,6.55,0,0,0,1.68,1.8,6.79,6.79,0,0,0,2.27,1,2.22,2.22,0,0,0-.83.51h0l-.12.71a8,8,0,0,1-3.86-2.8Zm13.62-1.57-.48-.34H18.2a2.23,2.23,0,0,0-.88.25,6.59,6.59,0,0,0,.51-4.83.63.63,0,0,0,.12.11,2.25,2.25,0,0,0,.68.33h.08l.53-.22A7.89,7.89,0,0,1,18.75,14.12Z" transform="translate(-2.93 -2.42)"/><path class="cls-1" d="M14.52,6.77a5.14,5.14,0,0,0-8.19,4.17,5.69,5.69,0,0,0,.07.83,5.19,5.19,0,1,0,8.16-5Zm.76,7a4.7,4.7,0,1,1-1-6.53,4.71,4.71,0,0,1,1,6.53Z" transform="translate(-2.93 -2.42)"/></g></svg>